<?xml version="1.0" encoding="UTF-8"?>
<!DOCTYPE svg PUBLIC "-//W3C//DTD SVG 1.1//EN" "http://www.w3.org/Graphics/SVG/1.1/DTD/svg11.dtd">
<!-- Creator: CorelDRAW 2020 (64-Bit) -->
<svg xmlns="http://www.w3.org/2000/svg" xml:space="preserve" width="210mm" height="160mm" version="1.1" style="shape-rendering:geometricPrecision; text-rendering:geometricPrecision; image-rendering:optimizeQuality; fill-rule:evenodd; clip-rule:evenodd"
viewBox="0 0 21000 16000"
 xmlns:xlink="http://www.w3.org/1999/xlink"
 xmlns:xodm="http://www.corel.com/coreldraw/odm/2003">
 <defs>
  <style type="text/css">
   <![CDATA[
    .fil27 {fill:#2C1D43}
    .fil37 {fill:#392333}
    .fil31 {fill:#3C220D}
    .fil28 {fill:#3D3253}
    .fil45 {fill:#513647}
    .fil71 {fill:#546CD9}
    .fil52 {fill:#584C69}
    .fil11 {fill:#5D526E}
    .fil47 {fill:#5E546F}
    .fil17 {fill:#635A73}
    .fil36 {fill:#787DD3}
    .fil69 {fill:#7B7689}
    .fil29 {fill:#8385E4}
    .fil5 {fill:#8386E4}
    .fil10 {fill:#839AEC}
    .fil76 {fill:#8C5C61}
    .fil3 {fill:#8E92EE}
    .fil64 {fill:#9093F0}
    .fil42 {fill:#93A5EE}
    .fil61 {fill:#A958CF}
    .fil53 {fill:#ACB3EF}
    .fil22 {fill:#ADA4B4}
    .fil77 {fill:#B1AAB5}
    .fil26 {fill:#B25ED7}
    .fil48 {fill:#B4787A}
    .fil59 {fill:#B67A84}
    .fil55 {fill:#BAC7F0}
    .fil4 {fill:#BEC1D1}
    .fil40 {fill:#C38A8A}
    .fil21 {fill:#C581E6}
    .fil25 {fill:#C892E5}
    .fil20 {fill:#CD9695}
    .fil9 {fill:#CE9695}
    .fil6 {fill:#CFCFDB}
    .fil70 {fill:#D3CACB}
    .fil54 {fill:#D4D9DB}
    .fil8 {fill:#D4E5F5}
    .fil51 {fill:#D8DBE3}
    .fil44 {fill:#D99DF8}
    .fil78 {fill:#DADBDE}
    .fil46 {fill:#DBE2E5}
    .fil16 {fill:#E2E6EA}
    .fil35 {fill:#E39D9B}
    .fil56 {fill:#E3B4B3}
    .fil15 {fill:#E4B4B0}
    .fil7 {fill:#E5B5B1}
    .fil18 {fill:#E5EAED}
    .fil63 {fill:#E6B6B2}
    .fil57 {fill:#E7D9D7}
    .fil60 {fill:#E8C5FB}
    .fil24 {fill:#EAEEF1}
    .fil62 {fill:#EBECEC}
    .fil65 {fill:#EBECF4}
    .fil58 {fill:#EDF1F2}
    .fil0 {fill:#EEEEF1}
    .fil74 {fill:#EEF2F5}
    .fil1 {fill:#EEF3F8}
    .fil68 {fill:#F0B396}
    .fil13 {fill:#F0F0F1}
    .fil50 {fill:#F1AF33}
    .fil30 {fill:#F1F2F5}
    .fil19 {fill:#F2F2F2}
    .fil72 {fill:#F2F2F4}
    .fil39 {fill:#F2F3F6}
    .fil14 {fill:#F4F3F3}
    .fil32 {fill:#F4F5F5}
    .fil34 {fill:#F5F5F9}
    .fil75 {fill:#F6F8F7}
    .fil66 {fill:#F7BCA6}
    .fil38 {fill:#F7F9F7}
    .fil49 {fill:#F8BC45}
    .fil73 {fill:#F9FAFA}
    .fil41 {fill:#FAC4A9}
    .fil67 {fill:#FCCA56}
    .fil43 {fill:#FCFCFC}
    .fil23 {fill:#FDCB5B}
    .fil79 {fill:#FDCC63}
    .fil12 {fill:#FDFDFD}
    .fil2 {fill:#FEFEFE}
    .fil33 {fill:#FFCD5E}
   ]]>
  </style>
 </defs>
 <g id="Layer_x0020_1">
  <metadata id="CorelCorpID_0Corel-Layer"/>
  <g id="_2248265167856">
   <path class="fil0" d="M9230.41 4719.04l-12.97 22.98 28.4 52.95c3.1,8.7 8.11,18.85 10.96,28.96l0.62 1010.96c-85.14,233.25 -32.49,45.56 28.75,116.28 -36.68,76.34 -39.02,-132.09 -17.43,183.06 37.31,544.64 16.3,5230.15 -14.37,5413.96l-153.42 -91.25c-53.31,-29.89 -99.21,-47.77 -173.06,-88.57l-491.64 -275.32c-3.4,-2.34 -34.36,-24.77 -65.23,-45.11 -54.53,-35.93 -40.81,-26.42 -90.24,-56.09l-980.68 -561.31c-309.79,-193.64 -255.5,-250.71 -255.36,-726.84 0.15,-535.28 38.8,-3885.27 -27.56,-4116.44l-43.86 -66.39c-139.9,-10.49 -362.72,-126.29 -431.27,-270.29l-120.32 6.03c40.58,35.35 44.13,71.05 98.29,74.83 -42.85,171.56 -1.44,131.52 -1,403.31 0.25,147.16 -0.75,294.53 -0.75,441.75l0 1763.6c0.04,700.22 23.67,295.19 -79.97,823.71 77.21,67.31 49.99,10.11 78.6,129.55 0.3,1.29 0.9,99.69 0.78,110.2 -1.17,104.39 -4.25,175.67 1.79,282.73l-3.54 1299.21 -915.76 510.69c-114.85,-26.81 -166.35,-68.21 -314.39,-60.7 -146.92,7.45 -151.32,59.04 -288.76,-8.91 49.01,128.21 83.43,144.95 151.23,245.56 71.85,106.63 86.34,148.62 192.41,208.46 121.9,68.77 491.75,-13.9 605.82,-86.61l949.38 -534.94 93.04 78.53c19.97,-28.64 -37.77,-148.27 270.56,51.62 105.02,68.08 718.03,490.04 811.42,478.28 156.54,92.44 118.51,43.57 257.89,156.85 162.53,132.07 164.43,28.16 129.34,117.16 229.4,-34.18 23.56,-20.53 113.17,69.63 161.42,-132.88 250.19,-66.15 392.45,8.75 30.32,194.78 -10.09,250.15 -82.44,418.82l74.19 -0.07c1.63,7.41 -4.87,11.99 -5.48,22.15 -0.58,9.84 -4.64,18.26 -5.37,21.49 -10.64,47.33 -27.43,81.47 13.72,65.17l34.36 -21.34c155.95,-74.7 553.75,-76.59 697.61,-18.36l59.1 -80.45c-71.91,-15.37 -20.67,-78.26 -21.49,-392.32l-0.11 -6687.27c0.89,-412.36 33.21,-576.62 -257.77,-777.26l-0.36 152.68c-103.09,91.35 -138.27,79.53 -266.15,110.06 75.28,55.42 26.61,5.29 26.87,85.87z"/>
   <path class="fil1" d="M8091.38 6682.97c305.29,-106.4 492.21,352.01 403.6,610.18 -200.3,583.58 -902.86,-154.63 -534.51,-529.65 98.83,-100.62 9.86,-38.33 130.91,-80.53zm-469.16 2788.58c-172.39,128.11 -50.27,133.61 -209.89,204.11 -50.21,-53.35 -107.01,-92.62 -62.57,-216.44 62.51,-174.08 218.42,33.62 449.83,-233.17 -77.35,-164.41 -185.11,-334.86 -283.52,-507.59 -179.28,-314.66 -137.45,-223.84 -136.45,-631.37 0.66,-269.4 0.08,-540.86 -0.96,-810 -1.1,-280.78 -160.43,-443.63 33.67,-596.65 273.45,95.44 38.68,235.53 77.88,702.53 232.07,128.5 447.07,249.09 679.17,388.34 190.98,114.57 496.9,308.14 691.83,375.78l-7.24 601.32c-200.6,169.14 -642.53,374.38 -882.82,521.55 112.82,367.17 447.7,684.99 456.48,708.39 89.41,238.37 -106.46,231.67 -106.68,231.72 -101.03,-84.62 -40.49,-79.82 -85.33,-228.43l-353.68 -637.08c-96.94,24.11 -166.9,58.01 -259.72,126.99zm1635.2 -3636.66c-239.18,109.73 -726.87,448.71 -916.64,498.08 -116.59,-44.64 -396.77,-184.01 -449.3,-298.2 -140.95,-3.37 -161.11,-31.79 -248.21,-87.19 -4.64,-2.95 -108.15,-69.74 -108.64,-70.1 -83.97,-64.42 -20.6,8.43 -93.9,-89.43 -146.27,-9.88 -272.48,-147.26 -423.55,-200.79 66.36,231.17 27.71,3581.16 27.56,4116.44 -0.14,476.13 -54.43,533.2 255.36,726.84l980.68 561.31c49.43,29.67 35.71,20.16 90.24,56.09 30.87,20.34 61.83,42.77 65.23,45.11l491.64 275.32c73.85,40.8 119.75,58.68 173.06,88.57l153.42 91.25c30.67,-183.81 51.68,-4869.32 14.37,-5413.96 -21.59,-315.15 -19.25,-106.72 17.43,-183.06 -61.24,-70.72 -113.89,116.97 -28.75,-116.28z"/>
   <path class="fil2" d="M12486.12 5534.48l-13 5298.17c147.18,-37.31 270.02,-157.26 419.51,-236.81 89.17,-10.48 659.87,-379.42 802.54,-457.34l18.24 -189.34c33.72,-517.89 -71.62,-616.33 102.78,-1408.67 29.24,-132.9 -2.67,-112.69 74.22,-146.88l-11.36 -29.55 -23.77 -55.87c-125.7,-86.11 -512.54,-466.74 -578.09,-596.6 -140.35,-82.73 -313.33,-143.68 -362.6,-352.43l24.4 -998.96c99.72,-84.94 684.95,-451.58 845.8,-462.69 -3.64,-133.79 -4.26,-123.53 -64.17,-194.17 -94.5,-143.6 -60.86,-85.72 -9.05,-243.77 33.09,-100.9 42.89,-205.05 70.28,-298.12 218.59,-50.49 306.45,-31.16 531.76,9.21l34.23 -43.51 440.48 231.16 16.26 -32.45 -471.82 -298.65c-68.85,-122.21 -29.82,-356.77 -33.75,-509.75 -304.54,137.31 -641.02,351.35 -933.44,522.03 -218.59,127.57 -658.88,413.11 -879.45,494.99z"/>
   <path class="fil3" d="M2001.5 14358.78c129.62,46.34 1039.01,556.7 1113.66,630.97l646.72 343.83c-23.29,-279.4 -3.85,-829.92 -3.71,-1184.15 0.17,-417.68 -25.76,-810.97 -35.05,-1207.19 19.7,-229.97 -37.18,-486.98 -240.55,-596.1 -232.17,-124.58 -1358.34,-843.9 -1560.14,-863.22 -5.89,495.96 -1.25,994.52 -1.25,1490.78 0,244.94 0.04,489.88 0,734.83 -0.03,206.66 -55.42,511.98 80.32,650.25z"/>
   <path class="fil4" d="M9990.25 6506.82c-72.24,-80.95 -123.64,-438.68 30.75,-554.06 54.83,56.53 37.78,-67.13 59.09,146.94 16.22,163.01 3.95,307.9 -89.84,407.12zm-3311.32 -3814.17c8.69,10.29 19.42,21.18 27.88,29.26 165.92,158.75 -64.18,1.86 176.39,130.2l2475.79 1420c87.4,51.86 95.44,49.5 111.06,98.32 290.98,200.64 258.66,364.9 257.77,777.26l0.11 6687.27c0.82,314.06 -50.42,376.95 21.49,392.32l333.45 -169.13 75.56 -126.12 23.38 -2502.38 1.28 -304.02c9.03,-74.71 4.29,-43.72 21.87,-94.46 2.63,-7.58 14.21,-12.78 16.43,-29.83 2.3,-17.57 13.18,-19.32 19.87,-28.91 -120.62,-125.93 -51.45,-840.6 -28.97,-879.68 -35.32,-75.83 -31.71,-50.29 -31.84,-159.35l1.99 -897.99c-2.02,-55.77 -3.34,-38.28 7.76,-86.58 1.19,-5.25 11.43,-10.94 12.55,-23.78 1.14,-13.03 10.6,-14.81 15.74,-22.32l3.51 -61.19c-5.08,-8.22 -9.26,-20.22 -11.23,-26.72 -2,-6.61 -7.99,-19.26 -10.14,-27.67l-15.39 -1933.37c1.49,-402.68 -6.94,-615.23 -265.2,-781.37 -469.47,-302.02 -1386.47,-795.09 -1912.01,-1099.75 -1409.69,-817.2 -696.93,-344.26 -1329.1,-280.01z"/>
   <path class="fil5" d="M3770.36 12192.01l-1.32 599.43c-7.43,72.48 -6.41,44.13 -20.38,95.89l-25.54 54.91c9.29,396.22 35.22,789.51 35.05,1207.19 -0.14,354.23 -19.58,904.75 3.71,1184.15l775.27 -401.72 155.92 -122.07c55.27,-31.89 121,-64.29 165.78,-89.98 122.67,-70.39 210.44,-123.16 328.06,-188.89 210.93,-117.85 458.32,-279.73 660.76,-372.81l-23.28 -483.19 7.41 -322.56 -8.46 -783.92c-154.66,-40.36 -154.5,91.27 -381.95,76.01l-70.01 120.23c-112.14,84.41 -228.49,151.2 -355.88,235.66 -91.29,60.53 -245.59,129.28 -322.22,184.87 -111.66,131.16 -334.31,263.53 -480.8,284.4l-9.12 -538.23c62.1,-222.52 39.94,-718.04 8.85,-959.21 -141.38,-25.1 -32.44,-55.92 -132.25,92.61 -59.56,88.64 -36.6,56.05 -103.88,140.42l-205.72 -13.19z"/>
   <path class="fil6" d="M10641.82 6041.32l77.08 -1.83 368.54 -229.53 17.68 -502.28c110.52,30.91 354.23,170.78 421.15,242.09 129.43,36.75 296.83,139.57 391.54,231.58l98.27 11.17 -0.76 129.48 1.19 439.62 5.24 1058.92c-3.35,92.77 -0.04,173.18 0.15,264.42 0.03,10.52 -0.69,106.04 -1.61,109.83 -32.41,134.57 27.47,42.8 -73.18,110.73 60.15,88.94 -51.19,42.6 72.92,85l-59.79 94.53c60.41,53.17 55.42,-83.81 61.16,148.89 2.76,112.41 -25.87,128.06 -69.39,181.8 60.54,47.01 47.94,8.88 -7.11,72.05 46.55,20.12 72.93,-52.13 81.26,221.32l-21.59 810.87c-114.04,80.25 -137.3,62.54 -215.16,169.39 259.61,-11.13 237.07,74.35 222.32,361.99 -5.87,185.97 -0.13,445.49 66.62,558.36l0.36 40.41 394.41 182.52 13 -5298.17c-104.6,-18.38 -778.46,-418.74 -917.49,-500.91 -143.98,-85.09 -333.98,-190.77 -464.22,-267.86 -153.7,-90.98 -283.83,-183.05 -465.64,-256.97l3.05 1532.58z"/>
   <path class="fil7" d="M12794.25 3641.51l16.09 244.94 54.89 489.38c101.13,78.05 65.98,38.26 64.72,202.4 -222.5,118.97 -285.07,186.04 -595.46,139.63 -174.35,-26.06 -440.44,-166.57 -252.85,-326.6l48.2 -488.29 27.11 -278.18 -1518.18 883.95c181.81,73.92 311.94,165.99 465.64,256.97 130.24,77.09 320.24,182.77 464.22,267.86 139.03,82.17 812.89,482.53 917.49,500.91 220.57,-81.88 660.86,-367.42 879.45,-494.99 292.42,-170.68 628.9,-384.72 933.44,-522.03 3.93,152.98 -35.1,387.54 33.75,509.75l-17.94 -551.93 -18.63 -55.04c-132.09,50.27 -1427.1,-755.58 -1502.31,-807.45l0.37 28.72z"/>
   <path class="fil8" d="M2913.6 11112.95c107.2,153.2 445.91,290.04 630.76,400.74 163.84,98.13 484.32,310.92 648.27,346.38l19.58 112.1c31.09,241.17 53.25,736.69 -8.85,959.21 115.97,-23.79 97.04,-31.36 194.51,-70.31l111.72 321.86 183.69 2.28c76.63,-55.59 230.93,-124.34 322.22,-184.87 127.39,-84.46 243.74,-151.25 355.88,-235.66l-113.93 -136.74c-65.96,-75.29 -20.15,-40.31 -122.24,-82.14l133.84 -49.93 35.77 -142.4 -495.21 277.57c-36.98,-186.21 -79.32,-384.11 -117.01,-576.69 -38.74,-198.05 -123.88,-344.54 -46.84,-494.16 -158.77,10.91 -23.08,47.17 -112.48,-80.17 -46.13,-65.69 21.74,-31.71 -97.29,-122.51 -64.21,-48.98 -205.29,-108.8 -284.72,-131.1 -104.93,26.48 -23.06,44.46 -191.72,73.82 -134.35,23.38 -150.79,14.38 -245.32,-19.11 -196.66,-69.68 -163.6,-171.79 -126.76,-336.2 -315.62,-101.98 -230.01,-2.15 -428.77,-295.61 -87.27,-128.84 -221.31,-314.87 -260.45,-433.64 -155.23,-471.13 180.34,-1215.01 -191.67,-1220.62 -161.82,-2.43 -150.24,53.39 -166.07,214.62l-88.29 1011.89c12.33,156.65 375.45,900.03 461.38,891.39z"/>
   <path class="fil9" d="M19348.06 5117.34c-154.36,19.65 -106.66,41.52 -206.09,-18.78 -85.44,101.87 32.43,0.99 -69.61,58.78 -90.9,51.5 -533.3,108.53 -633.15,108.74l3.28 2136.31 909.47 -491.25 10.03 -657.07c14.3,-78.14 3.61,-39.33 32.59,-85.35l418.85 -81.57 13.85 -1122.94c-14.97,16.64 -69.49,-10.17 -69.74,85.65 -89.41,14.46 -243.3,46.59 -409.48,67.48z"/>
   <path class="fil10" d="M13890.41 8393.61c-76.89,34.19 -44.98,13.98 -74.22,146.88 -174.4,792.34 -69.06,890.78 -102.78,1408.67 90.09,111.4 82.81,469.49 105.88,639.23l19.6 353.12c146.95,79.04 178.28,113.62 371.97,43.48l1.32 -239.66c-99.4,-228.29 -53.52,-648.92 -67.41,-931.23 -5.52,-151.31 -20.3,-272.47 27.14,-407.24 13.89,-39.44 45.35,-104.42 68.84,-151.3 70.87,-141.54 12.67,-94.86 117.13,-136.16 1.78,-403.42 338.26,-436.6 428.1,-598.8 -22.25,233.35 -70.02,195.34 -214.98,330.57 -170.28,158.82 -88.85,173.31 -153.05,289.38 -72.06,130.32 49.44,-12.11 -71.79,75.35l144.82 603.03c85.99,79.22 109.8,207.63 164.85,328.42l195.95 480.86c170.14,6.42 232.1,-42.92 348.81,-85.11 5.77,-215.71 -196.29,-549.06 -284.94,-774.09 -119.82,-304.11 -81.97,-624.75 -94.35,-973.9 -4.89,-168.57 -24.55,-280.41 66.66,-414.31l-17.07 -158.62c-136.92,67 -250.51,174.59 -443.65,225.15 -181.5,47.51 -380.13,30.18 -536.83,-53.72z"/>
   <path class="fil11" d="M14584.59 4342.32l-269.77 132.96 17.94 551.93 471.82 298.65c210.51,75.07 729.76,444.47 852.74,464.55 103.15,16.84 785.02,-406.09 839.92,-458.97l-90.72 -65.13c-27.93,-18.76 -80.02,-51.57 -112.96,-71.43 -77.78,-46.88 -129.55,-75.22 -209.69,-120.63 -139.17,-78.88 -295.7,-170.73 -439.1,-258.96 -148.69,-91.5 -291.73,-169.07 -443.74,-254.31 -147.32,-82.59 -299.39,-185.55 -463.02,-255.51l-10.22 -26.22 -143.2 63.07z"/>
   <path class="fil12" d="M3599.6 10873.33l60.08 -30.46 25.46 -140.71c-285.11,-750.91 -186.29,-524.11 -41.33,-757.93 56.48,-91.11 16.69,-91.02 93.63,-167.41 173.68,-172.45 943.3,-132.68 669.91,523.65l-49.86 21.25c-15.92,229.91 -36.91,484.41 -254.04,529.78l-46.09 194.13 93.91 180.78c79.43,22.3 220.51,82.12 284.72,131.1 119.03,90.8 51.16,56.82 97.29,122.51 89.4,127.34 -46.29,91.08 112.48,80.17 182.33,-15.64 182.96,-65.56 397.18,-33.21l63.67 511.65c249.23,-65.12 296.71,-143.94 559.2,-51.72l37.96 -115.28c-45.26,27.5 -97.83,50.65 -102.1,-73.82 -6,-175.22 5.11,-81.18 120.33,-155.97 189.12,-122.77 222.28,-197 294.34,-101.25 -130.31,-73.21 -36.38,11.39 -69.86,-146.6 -114.07,72.71 -483.92,155.38 -605.82,86.61 -106.07,-59.84 -120.56,-101.83 -192.41,-208.46 -67.8,-100.61 -102.22,-117.35 -151.23,-245.56l-274.95 -326.48c-82.59,-169.23 -223.62,-1395.25 -220.38,-1557.52 29.81,-70.63 16.35,-54.18 83.02,-99.08 18.74,-12.61 72.87,-34.37 97.54,-45.33 2.21,-119.68 -8.48,-156.23 -75.78,-244.26 28.61,-37.61 12.9,-155.35 -59.97,-256.6l-93.17 133.37c-1.32,-2.78 -0.51,-13.35 -1.21,-15.43l20.71 -13.8c-1.99,117.27 26.5,133.38 -17.04,238.72 -58.36,141.24 -44.41,-41.78 -50.57,169.96l-5.88 564.88c-111.2,12.73 -156.49,39.9 -183.51,41.66 -105.43,6.89 -198.86,-68.84 -493.88,-2.87 -6.23,1.38 -17.27,5.22 -23.47,6.34l-150.72 -3.9c-2.45,0.46 -137.37,-176.97 -37.12,79.6l61.98 93.15c2.84,-6.18 14.26,15.34 18.41,24.75 -16.58,12.73 -174.51,54.92 -76.53,0.18 -3.82,355.94 -39.97,37.52 -93.97,269.34l10.82 338.94c151.1,421.34 42.25,96.49 49.82,457.04 68.77,26.33 70.63,10.4 118.43,-5.91z"/>
   <path class="fil13" d="M6503.34 3768.03c171.27,-56.46 87.74,-56.52 208.94,-165.21 257.32,-230.74 300.09,-146.41 462.9,-54.95 114.15,64.13 157.92,70.34 235.92,172.24 100.04,8.32 34.22,0.46 114.87,32.58 18.75,7.45 104.16,51.92 121.95,61.58 128.97,70.14 150.96,72.52 195.46,160.38 144.62,15.87 401.69,165.67 474.82,266.07 138.34,19.91 319.31,122.73 420.89,213.82l46.28 46.54c139.36,35.71 288.26,148.79 445.04,217.96 -0.26,-80.58 48.41,-30.45 -26.87,-85.87 127.88,-30.53 163.06,-18.71 266.15,-110.06l0.36 -152.68c-15.62,-48.82 -23.66,-46.46 -111.06,-98.32l-2475.79 -1420c-240.57,-128.34 -10.47,28.55 -176.39,-130.2 -8.46,-8.08 -19.19,-18.97 -27.88,-29.26 -41.55,33.38 -58.79,49.64 -77.42,69.54 -190.03,202.97 -12.83,595.13 -98.17,1005.84z"/>
   <path class="fil14" d="M13893.48 6784.98l30.28 -151.93c148.14,1.11 190.8,49.09 279.39,119.35l89.25 149.46c69.64,254.85 -73.87,926.76 32.16,1186.92 196.14,481.26 -360.3,291.84 -445.51,275.28l11.36 29.55c156.7,83.9 355.33,101.23 536.83,53.72 193.14,-50.56 306.73,-158.15 443.65,-225.15 6.67,-5.43 18.14,-21.24 21.21,-14.65l127.68 -78.6 4.61 -310.99c41.91,-269.57 -15.24,-806.57 -42.49,-1093.85 -83,-87.02 -52.25,3.69 -45.6,-156.16l-21.04 -134.43c-9.32,-9.86 -20.94,-20.69 -28.44,-29.14l-89.22 -113.49c-57.01,-67.28 -228.73,-67.64 -345.81,-113.91 -4.63,106.71 -71.72,-125.89 19.18,33.07l62.62 113.25c-120.76,45.59 -75.02,141.06 -300.15,153.51l-108.69 -210.75c-126.92,-24.47 -148.03,-2.72 -290.74,-33.82 0.59,101.86 -4.82,215.05 -2.28,314.29l61.75 238.47z"/>
   <path class="fil15" d="M17928.59 5608.83c125.93,-5.17 55.47,-47.69 147.11,112.62 25.93,45.34 62.3,114.66 107.79,178.45l57.53 143.91c-106.41,32.95 -98,46.63 -213.84,76.49l-105.38 -87.02c-82.31,-26.16 -125.55,-56.57 -203.46,-94.52 -41.82,-20.39 -50,-16.55 -93.84,-50.65 -114.75,-89.25 -31.12,-19.77 -75.74,-87.32l-33.51 596.16c-0.33,174.41 -39.9,437.73 60.59,542.38 134.12,48.34 179.08,83.47 308.56,157.74 65.59,37.6 84.72,42.88 143.18,72.15 116.87,58.54 84.98,30.79 149.19,119.3l265.72 113.87 -3.28 -2136.31c-139.7,-173.23 -277.11,-578.89 -459.47,-691.46 -1.19,295.62 56.5,793.59 -51.15,1034.21z"/>
   <path class="fil16" d="M4997.02 11026.58c137.44,67.95 141.84,16.36 288.76,8.91 148.04,-7.51 199.54,33.89 314.39,60.7l-31.87 -1323.34 -157.8 -108.63 -163.42 -98.26 -431.57 -259.86 -313.82 -163.52c-3.24,162.27 137.79,1388.29 220.38,1557.52l274.95 326.48z"/>
   <path class="fil11" d="M15242.05 4473.26l9.65 15.44 1073.58 636.32c359.63,219.89 234.34,170.25 826.24,-157.7 311.09,-172.36 214.19,-99.71 253.11,-201.52 -283.2,-50.48 -960.02,-632.64 -1291.46,-728.23 -130.4,-24.57 -87.65,-12.11 -222.86,71.88 -78.52,48.77 -129.61,74.91 -210.34,121.31 -137.19,78.85 -278.08,174.8 -437.92,242.5z"/>
   <path class="fil17" d="M8405.52 8890.08l-5.36 -320.45 284.54 152.96c-93.07,83.53 -179.77,123.04 -279.18,167.49zm-465.49 -576.43c100.06,17.52 251.47,125.06 356.76,169.9l-8.88 411.32 -344.02 -203.51 -3.86 -377.71zm-339.23 322.71c131.95,52.61 182.21,95.32 308.2,166.14 178.59,100.4 229.69,96.8 314.91,211.75l-341.49 174.66c-66.32,-209.55 -199.95,-365.3 -281.62,-552.55zm800.87 -605.43l349.74 202.94 0.61 398.59 -351.4 -214.69 1.05 -386.84zm-918.69 -0.42l350.59 203.39 -1.32 396.71 -348.14 -212.85 -1.13 -387.25zm465.75 -252.09c123.79,57.9 209.4,84.44 344.74,198.37l5.29 383.68c-111.18,-41.66 -290.34,-146.43 -357.66,-204.41l7.63 -377.64zm-452.44 -274.5l338.64 215.73 0.31 358.33c-118.15,-8.77 -243.73,-113.94 -354.35,-160.6l15.4 -413.46zm303.3 1722.13c-231.41,266.79 -387.32,59.09 -449.83,233.17 -44.44,123.82 12.36,163.09 62.57,216.44 159.62,-70.5 37.5,-76 209.89,-204.11 92.82,-68.98 162.78,-102.88 259.72,-126.99l353.68 637.08c44.84,148.61 -15.7,143.81 85.33,228.43 0.22,-0.05 196.09,6.65 106.68,-231.72 -8.78,-23.4 -343.66,-341.22 -456.48,-708.39 240.29,-147.17 682.22,-352.41 882.82,-521.55l7.24 -601.32c-194.93,-67.64 -500.85,-261.21 -691.83,-375.78 -232.1,-139.25 -447.1,-259.84 -679.17,-388.34 -39.2,-467 195.57,-607.09 -77.88,-702.53 -194.1,153.02 -34.77,315.87 -33.67,596.65 1.04,269.14 1.62,540.6 0.96,810 -1,407.53 -42.83,316.71 136.45,631.37 98.41,172.73 206.17,343.18 283.52,507.59z"/>
   <path class="fil6" d="M6198.23 9416.74c-139.27,120.72 -304.92,199.6 -467.83,293.36l-162.1 62.75 31.87 1323.34 915.76 -510.69 3.54 -1299.21c-148.17,36.03 -171.43,91.38 -321.24,130.45z"/>
   <path class="fil11" d="M10180.45 7933.4c127.49,86.92 272.98,154.8 415.07,240.26 561.72,337.82 389.44,396.03 1290.04,-162.06 -77.97,-87.86 -1571.59,-938.1 -1703.12,-976.19l-1.99 897.99z"/>
   <path class="fil3" d="M1923.11 11115.31c165.37,82.62 313.67,180.61 463.42,271 154.66,93.35 329.39,185.87 468.34,269.71 226.23,136.49 753.75,394.96 915.49,535.99l205.72 13.19c67.28,-84.37 44.32,-51.78 103.88,-140.42 99.81,-148.53 -9.13,-117.71 132.25,-92.61l-19.58 -112.1c-163.95,-35.46 -484.43,-248.25 -648.27,-346.38 -184.85,-110.7 -523.56,-247.54 -630.76,-400.74 -204.47,-31.2 -464.69,-239.24 -673.28,-353.2 -358.75,-196.01 -574.31,168.23 -317.21,355.56z"/>
   <path class="fil18" d="M10181.81 9429.65l-23.38 2502.38c95.26,-102.03 57.2,-734.55 48.95,-926.43l33.88 -477.54c69.56,200.09 -68.21,-28.83 337.01,158.31 182.49,84.28 159.73,-37.15 358.79,-72.63 237.15,-42.28 735.56,14.81 946.32,16.19l194.97 -20.21c-66.75,-112.87 -72.49,-372.39 -66.62,-558.36 -583.23,11.26 -204.56,-35.85 -523.12,59.13 -167.55,49.97 -282.15,-38.05 -434.73,-4.71l-310.51 16.64c-140.53,1.9 -62.75,24.22 -214.45,10.87 -105.02,51.22 -210.74,128.36 -315.35,177.63 -26,-225.67 -42.12,-572.92 9.64,-790.94 90.94,-164.95 405.5,-116.43 365.83,-299.86l-407.23 209.53z"/>
   <path class="fil19" d="M14541.74 2000.32c-68.76,31.77 -107.57,37.02 -209.61,68.96l-214.36 100.87 154.09 5.9c125.19,293.79 44.78,909.41 18.13,1254.41l820.79 -467.73c22.65,-12.08 53.01,-28.17 74.82,-41.42 58.27,-35.39 46.69,-27.78 77.13,-51.56l-11.36 -149.13c-32.33,-259.63 -94.69,-551.45 -116.2,-773l-193.94 -77.2c-137.35,131.63 -45.74,137.69 -158.3,283.8 -157.36,9.45 -216.1,7.6 -241.19,-153.9z"/>
   <path class="fil15" d="M10631.56 6622.05l14.51 502.18c95.64,102.08 791.68,478.53 930.25,546.47l-1.94 -8.13 -3.31 -1053.31 -364.09 -224.99c-122.37,-23.55 -59.83,-3.51 -163.02,-66.42 -98.59,-74.75 -78.71,-62.82 -197.67,-122.72 -98.79,-49.73 -178.82,-52 -127.39,-155.64l-77.08 1.83 -10.26 580.73z"/>
   <path class="fil20" d="M15660.71 3154.98c-57.3,52.85 -80.07,78.33 -158.23,120.48 -112.34,60.59 -96.52,10.34 -184.45,118.37 70,13.84 20.81,-35.08 46.02,26.08l-72.41 354.83 -72.07 -65.06 -156.28 59.46 144.96 21.04 -142.32 57.1c139.81,29.93 76.95,-20.48 82.65,109.69 113.48,34.58 77.68,21.72 78.25,193.04 0.48,142.24 -7.97,176.55 15.22,323.25 159.84,-67.7 300.73,-163.65 437.92,-242.5 80.73,-46.4 131.82,-72.54 210.34,-121.31 135.21,-83.99 92.46,-96.45 222.86,-71.88 41.11,-160.32 14.6,-430.33 45.66,-649.67 25.74,-181.63 89.91,-355.78 104.86,-544.45 -205.42,85.73 -380.64,252.68 -602.98,311.53z"/>
   <path class="fil21" d="M6503.34 3768.03c-37.23,125.45 -212.81,342 -293.32,544.49 -88.27,222.02 -162.88,468.05 -149.31,722.18l361.02 221.91 120.32 -6.03c-68.23,-278.4 132.17,-729.38 259.29,-934.24 128.37,-206.85 396.11,-510.25 609.76,-596.23 -78,-101.9 -121.77,-108.11 -235.92,-172.24 -162.81,-91.46 -205.58,-175.79 -462.9,54.95 -121.2,108.69 -37.67,108.75 -208.94,165.21z"/>
   <path class="fil22" d="M11118.37 8956.07l-15.18 1075.2c173.26,-34.63 489.67,-292.94 686.22,-341.9 77.86,-106.85 101.12,-89.14 215.16,-169.39l21.59 -810.87c-8.33,-273.45 -34.71,-201.2 -81.26,-221.32l-826.53 468.28z"/>
   <path class="fil12" d="M7440.73 5788.05c73.3,97.86 9.93,25.01 93.9,89.43 0.49,0.36 104,67.15 108.64,70.1 87.1,55.4 107.26,83.82 248.21,87.19 61.52,-709.74 434.01,-1296.86 893.89,-1533.69l-46.28 -46.54c-101.58,-91.09 -282.55,-193.91 -420.89,-213.82 -286.16,181.43 -439.43,328.46 -605.5,618.95 -134.8,235.77 -296.41,607.86 -271.97,928.38z"/>
   <path class="fil21" d="M6973.32 5520.87l43.86 66.39c151.07,53.53 277.28,190.91 423.55,200.79 -24.44,-320.52 137.17,-692.61 271.97,-928.38 166.07,-290.49 319.34,-437.52 605.5,-618.95 -73.13,-100.4 -330.2,-250.2 -474.82,-266.07 -266.41,237.42 -403.87,278.98 -591.14,609.11 -159.95,281.97 -260.71,576.75 -278.92,937.11z"/>
   <path class="fil21" d="M7891.48 6034.77c52.53,114.19 332.71,253.56 449.3,298.2 24.82,-349.08 136.94,-699.02 290.11,-957.69 90.23,-152.38 168.62,-246.69 275.03,-350.91 97.74,-95.72 220.63,-145.98 311.52,-282.35l12.97 -22.98c-156.78,-69.17 -305.68,-182.25 -445.04,-217.96 -459.88,236.83 -832.37,823.95 -893.89,1533.69z"/>
   <path class="fil23" d="M7150.5 12322.06l-91.14 51.6c-45.28,43.01 43.97,11.54 -89.56,75.14l2.37 1149.72c-0.32,45.34 -5.32,148.25 -3.04,185.23 11.07,179.63 20.33,146.71 60.41,195.78l387.2 -197.76 27.35 -1091.34c106.72,-64.95 190.49,-104.43 286.03,-161.97 -72.16,-159.88 -83.67,-314.69 153.11,-359.93l0.61 -251.43 -110.12 42.03 -102.65 61.3 -61.45 23.63 -156.57 -349.67 -21.79 40.92 -8.77 434.23 -271.99 152.52z"/>
   <path class="fil12" d="M6542.05 5250.58c68.55,144 291.37,259.8 431.27,270.29 18.21,-360.36 118.97,-655.14 278.92,-937.11 187.27,-330.13 324.73,-371.69 591.14,-609.11 -44.5,-87.86 -66.49,-90.24 -195.46,-160.38 -17.79,-9.66 -103.2,-54.13 -121.95,-61.58 -80.65,-32.12 -14.83,-24.26 -114.87,-32.58 -213.65,85.98 -481.39,389.38 -609.76,596.23 -127.12,204.86 -327.52,655.84 -259.29,934.24z"/>
   <path class="fil18" d="M16619.74 7416.42c-96.49,206.91 -83.63,24.45 -287.25,113.77 -58.15,25.5 14.51,8.68 -103.17,43.81l-661.04 151.2c-158.31,61.37 18.05,53.58 -363.64,86.39l-78.36 46.1 -101.89 -39.75 -4.61 310.99 -127.68 78.6c-3.07,-6.59 -14.54,9.22 -21.21,14.65l17.07 158.62c57.13,-90.48 26.33,103.35 72.83,-130.52 103.78,110.48 -89.55,-6.34 72.14,36.45 236.06,62.48 243.6,-10.02 297.73,-34.5 160.14,-72.42 328.7,-41.22 487.35,-105.79 7.31,-2.97 16,-8.57 23.29,-11.72 7.43,-3.22 15.96,-9.08 23.61,-12.29 209.31,-87.88 196.81,-5.88 353.16,-87.33 154.77,-80.62 130.48,-109.74 453.17,-102.9 1.5,-12.14 6.75,-48.59 8.06,-52.04 24.69,-64.07 -50.1,-142.85 14.56,-23.22 26.34,48.73 23.52,162.26 32.09,224.7l55.21 -13.4c-31.78,-380.12 45.54,-2000.57 -52.18,-2150.37 -64.37,297.12 -20.82,1217.48 -20.82,1582.58 -2.11,-82.52 72.79,-31.11 -88.42,-84.03z"/>
   <path class="fil24" d="M4537.15 14931.86l-775.27 401.72 -646.72 -343.83c-104.16,56.39 -34.23,32.02 -130.28,-12.43 -137.62,-63.67 55.24,-35.6 -129.11,-51.48 -72.76,-6.26 -101.58,10.97 -153.25,24.71 -25.91,6.89 -73,22.02 -100.72,30.09l-75.92 21.51 78.71 94.03c16.2,18.02 47.25,49.68 73.02,77.75l400.49 419.03c127.77,19.73 658.28,-60.13 786.68,-106.83 198.01,-72.01 179.18,-26.18 383.06,-58.81l134.18 -43.69c9.07,-2.99 17.88,-6.94 27.4,-9.75 73.02,-21.58 165.39,-28.63 244.77,-44.55 107.37,-23.04 693.97,-333.21 787.4,-457.98 -103.51,-99.54 -101.24,-55.34 -241.48,-17.52l-290.53 83.14c-208.15,19.6 -128.51,-43.61 -272.75,66.04 24.79,51.38 40.97,-97.8 -99.68,-71.15z"/>
   <path class="fil12" d="M15892.27 6266.16c67.93,199.35 132.02,171.29 190.05,282.08 76.36,145.77 -87.81,160.03 -219.4,104.07 204.23,538.97 -274.95,169.75 215.25,444.51 63.79,35.76 82.93,52.09 170.43,85.83 133.48,93.92 257.61,154.27 371.14,233.77 161.21,52.92 86.31,1.51 88.42,84.03 0,-365.1 -43.55,-1285.46 20.82,-1582.58 -3.22,-6.41 -6.82,-25.37 -9.15,-19.51 -2.25,5.7 -9.89,-14.86 -13.14,-16.34 -93.53,-42.55 89.6,-4.84 -78.85,-18.15 -104.16,-47.33 -6.36,-43.58 -181.43,54.75 -77.17,43.34 -19.12,8.64 -91.58,55.49l-462.56 292.05z"/>
   <path class="fil25" d="M8812.84 12899.91c95.51,145.31 7.44,117.86 30.95,368.36 17.45,185.77 71.51,145.25 97.42,283.67 -126.48,15.04 -157.31,-42.38 -190.93,-187.9 -29.26,-126.73 -20.13,-224.63 -8.32,-351.37 -103.52,52.78 -229.83,136.81 -334.61,182.21 -145.86,137.47 -33.74,768.02 -64.85,1076.35 132.48,-18.12 692.97,-402.91 916.85,-480.97l2.32 -1088.33c-149.1,90.79 -271.22,215.02 -448.83,197.98z"/>
   <path class="fil1" d="M12914.59 7359.16c56.89,-36.2 140.07,-74.68 201.24,-113.5 116.82,-74.16 89.65,-78.51 223.83,-120.18l482.63 -270.27 -37.5 -957.7c-160.85,11.11 -746.08,377.75 -845.8,462.69l-24.4 998.96z"/>
   <path class="fil18" d="M14738.01 4305.47c163.63,69.96 315.7,172.92 463.02,255.51 152.01,85.24 295.05,162.81 443.74,254.31 143.4,88.23 299.93,180.08 439.1,258.96 80.14,45.41 131.91,73.75 209.69,120.63 32.94,19.86 85.03,52.67 112.96,71.43l90.72 65.13c-54.9,52.88 -736.77,475.81 -839.92,458.97 -122.98,-20.08 -642.23,-389.48 -852.74,-464.55l-16.26 32.45c86.86,108.18 662.21,419.02 799.33,506.43 -124.81,96.75 -646.16,388.63 -790.05,426.13l89.22 113.49c7.5,8.45 19.12,19.28 28.44,29.14 60.43,-106.13 -5.99,-43.62 124.06,-127.7 381.61,-246.74 2281.02,-1325.64 2390.81,-1328 64.5,327.77 -226.4,378.18 -474.68,527.95 -221.34,133.52 -425.18,245.72 -650.61,377.66l-1287.97 761.22 -80.57 -76.7c-6.65,159.85 -37.4,69.14 45.6,156.16 26.87,-44.27 4.95,-50.37 33.88,-10.04l221.82 -113.08 249.79 -138.45c54.17,-45.16 266.64,-175.46 343.22,-203.13l61.66 6.77 462.56 -292.05c72.46,-46.85 14.41,-12.15 91.58,-55.49 175.07,-98.33 77.27,-102.08 181.43,-54.75 49.77,-119.16 84.2,-120.07 205.84,-187.83 102.62,-57.16 139.76,-94.32 255.45,-104.42 77.28,-109.26 206.1,-165.51 332.89,-202.3 107.38,-79.9 103.24,-177.79 109.05,-300.54 2.36,-49.93 6.98,-116.31 -8.92,-167.56 -73.82,-237.78 -32.48,-92.94 -117.52,-135.42 -38.92,101.81 57.98,29.16 -253.11,201.52 -591.9,327.95 -466.61,377.59 -826.24,157.7l-1073.58 -636.32c-82.32,-30.96 -381.63,-195.89 -439.02,-262.09 -97,40.74 -85.76,-65.8 -74.67,78.86z"/>
   <path class="fil23" d="M13893.48 6784.98l-32.99 189.23 -45.69 380.79 -10.15 299.31c-116.7,-58.55 -91.1,-90.07 -189.66,-195.3 -231.42,11.19 -176.86,10.66 -324.19,139.95l-13.61 112.63c65.55,129.86 452.39,510.49 578.09,596.6 375.05,-5.61 308.64,-240.18 336.96,-594.85 26.04,-326.19 67.43,-637.42 10.91,-960.94 -88.59,-70.26 -131.25,-118.24 -279.39,-119.35l-30.28 151.93z"/>
   <path class="fil26" d="M8340.78 6332.97c189.77,-49.37 677.46,-388.35 916.64,-498.08l-0.62 -1010.96c-2.85,-10.11 -7.86,-20.26 -10.96,-28.96l-28.4 -52.95c-90.89,136.37 -213.78,186.63 -311.52,282.35 -106.41,104.22 -184.8,198.53 -275.03,350.91 -153.17,258.67 -265.29,608.61 -290.11,957.69z"/>
   <path class="fil27" d="M14915.26 6433.5l21.04 134.43 80.57 76.7 1287.97 -761.22c225.43,-131.94 429.27,-244.14 650.61,-377.66 248.28,-149.77 539.18,-200.18 474.68,-527.95 -109.79,2.36 -2009.2,1081.26 -2390.81,1328 -130.05,84.08 -63.63,21.57 -124.06,127.7z"/>
   <path class="fil28" d="M16627.84 5863.87c168.45,13.31 -14.68,-24.4 78.85,18.15 3.25,1.48 10.89,22.04 13.14,16.34 2.33,-5.86 5.93,13.1 9.15,19.51 97.72,149.8 20.4,1770.25 52.18,2150.37l21.79 7.36 235.89 115.08c75.87,-349.21 -9.12,-2043.33 26.26,-2638.65l24.03 19.59c-115.69,10.1 -152.83,47.26 -255.45,104.42 -121.64,67.76 -156.07,68.67 -205.84,187.83z"/>
   <path class="fil29" d="M7888.24 12270.19c217.16,66.35 261.4,178.59 355.88,363.21 -74.8,-17.79 -142.5,-32.77 -210.82,-59.31l-183.47 -119.51c-0.22,-0.18 -75.24,3.72 -54.79,-95.54 13.88,-67.36 51.42,-63.96 93.2,-88.85zm549.33 244.01c27.95,-192.92 156.07,-862.4 398,-634.47 163.02,153.6 -308.21,564.38 -398,634.47zm133.71 -703.08l-172.8 348.45c-47.19,138.98 -30.68,231.09 -107.11,336.31 -51.35,-94.39 -97.82,-151.24 -166.11,-225.59l-242.03 -101.76c-236.78,45.24 -225.27,200.05 -153.11,359.93 162.52,100.11 226.85,129.41 434.94,207.96 -112.18,81.57 -176.42,109.6 -291.79,183.28 -94.59,201.38 -41.88,832.57 -37.46,1089.64 59.03,8.04 45.05,-9.14 45.05,48.85l53.04 -11.59c24.87,-241.88 -64.32,-912.88 51.31,-1063.74 83.56,-62.01 291.27,-205.28 373.05,-198.96 101.19,7.82 326.19,166.72 383.7,228.77 -11.81,126.74 -20.94,224.64 8.32,351.37 33.62,145.52 64.45,202.94 190.93,187.9 -25.91,-138.42 -79.97,-97.9 -97.42,-283.67 -23.51,-250.5 64.56,-223.05 -30.95,-368.36l-342.16 -172.68c126.66,-167.15 249,-138.45 370.37,-268.25l-93.25 -73.15c80.9,-79.77 56.38,-116.22 133.49,-147.14 72.35,-168.67 112.76,-224.04 82.44,-418.82 -142.26,-74.9 -231.03,-141.63 -392.45,-8.75z"/>
   <path class="fil11" d="M17089.13 5571.62l-24.03 -19.59c-35.38,595.32 49.61,2289.44 -26.26,2638.65 158.07,-44.84 175.92,-80.33 307.73,-142.42 -65.98,-262.92 -62.41,-1898.84 27.19,-2159.09 71.93,-208.93 -5.19,-278.16 48.26,-519.85 -126.79,36.79 -255.61,93.04 -332.89,202.3z"/>
   <path class="fil30" d="M19351.96 6911.14l-909.47 491.25 -265.72 -113.87c-78.74,15.99 -37.14,27.75 -51.47,36.61 -16.72,10.33 34.64,8.89 -43.07,20.4 -28.3,4.19 -119.47,-6.31 -160.68,-10.78 85.13,207.58 279.88,289.84 388.79,444.96 22.36,11.8 94.54,37.2 124.08,49.75l39.54 -35.77c173.68,-149.21 165.19,-76.01 267.01,-171.4l66.39 -76.56c123.2,-104.18 327.7,-165.01 509.28,-181.41 87.59,-190.67 -33.18,-75.57 156.37,-186.68 154.15,-90.35 500.81,-286.23 647.01,-314.14l-68.36 -90.96 -202.82 -127.69c-13.25,71.48 36.09,39.2 -111.81,98.22 -246.59,98.37 162.05,19.68 -103.86,-7.37 -11.78,-1.21 -2.49,-71.45 -104.51,97.59 -3.96,6.58 -22.82,53.84 -28.32,64.77 -98.01,-33 -11.4,-36.55 -148.38,13.08z"/>
   <path class="fil31" d="M3685.14 10702.16c125.2,15.52 265.57,39.69 359.3,76.53l74.91 -80.06c-24.78,-210.45 -58.84,-137.35 -81.96,-298.44 95.33,-36.85 135.18,-8.04 242.14,-106.37l46.52 -95.25c50.73,100.63 36.19,57.09 81.3,101.9 273.39,-656.33 -496.23,-696.1 -669.91,-523.65 -76.94,76.39 -37.15,76.3 -93.63,167.41 -144.96,233.82 -243.78,7.02 41.33,757.93z"/>
   <path class="fil32" d="M10207.38 11005.6l70.81 195.42c536.94,-17.45 521.26,40.3 926.52,-169.6 153.3,-79.39 587.8,-264.84 678.67,-401.49 -210.76,-1.38 -709.17,-58.47 -946.32,-16.19 -199.06,35.48 -176.3,156.91 -358.79,72.63 -405.22,-187.14 -267.45,41.78 -337.01,-158.31l-33.88 477.54z"/>
   <path class="fil21" d="M4811.65 8233.84l-12.4 255.11c34.42,238.42 78.96,411.6 171.11,608.49 83.39,178.17 230.13,341.55 276.72,468.52l163.42 98.26c-167.21,-673.45 -235.22,-845.21 48.77,-1443.04 -138.12,-106.39 -136.57,-178.52 -345.06,-291.43 -34.85,-65.85 32.43,1.06 -83.18,-70.71 -41.27,-25.61 -72.39,-36.9 -102.94,-51.32 -76.84,161.51 -99.46,238.4 -116.44,426.12z"/>
   <path class="fil33" d="M14244.38 3906.24l76.74 21.75c161.53,37.47 329.06,97.11 434.62,12.29 -149,-70.53 -125.84,-163.54 6.29,-236.25 -74.73,-93.43 -362.38,-109.21 -475.71,-136.81l3.67 -136.76c26.65,-345 107.06,-960.62 -18.13,-1254.41l-154.09 -5.9c-194.45,299.88 -154.38,438.99 -133.11,920.12 7.6,171.7 15.25,352.58 32.08,520.62 26.87,268.5 56.82,230.16 227.64,295.35z"/>
   <path class="fil29" d="M5459.27 8221.18c-283.99,597.83 -215.98,769.59 -48.77,1443.04l157.8 108.63 162.1 -62.75c2.42,-244.21 -50.14,-440.86 -8.48,-704.69 34.88,-220.87 149.4,-342.53 181.87,-508.7l-35.44 -86.25c-129.31,-135.63 -100.41,-163.98 -269.75,-287.66 -61.68,40.12 -71.11,48.95 -139.33,98.38z"/>
   <path class="fil34" d="M14887.96 8380.8c-91.21,133.9 -71.55,245.74 -66.66,414.31 110.07,-74.24 349.22,-106.19 461.96,-120.81 607.95,-78.87 895.64,-386.83 1442.69,-592.66 -8.57,-62.44 -5.75,-175.97 -32.09,-224.7 -64.66,-119.63 10.13,-40.85 -14.56,23.22 -1.31,3.45 -6.56,39.9 -8.06,52.04 -322.69,-6.84 -298.4,22.28 -453.17,102.9 -156.35,81.45 -143.85,-0.55 -353.16,87.33 -7.65,3.21 -16.18,9.07 -23.61,12.29 -7.29,3.15 -15.98,8.75 -23.29,11.72 -158.65,64.57 -327.21,33.37 -487.35,105.79 -54.13,24.48 -61.67,96.98 -297.73,34.5 -161.69,-42.79 31.64,74.03 -72.14,-36.45 -46.5,233.87 -15.7,40.04 -72.83,130.52z"/>
   <path class="fil35" d="M17979.74 4574.62c182.36,112.57 319.77,518.23 459.47,691.46 99.85,-0.21 542.25,-57.24 633.15,-108.74 102.04,-57.79 -15.83,43.09 69.61,-58.78 -86.98,-167.16 -352.36,-591 -361.62,-756.94 -134.87,17.95 -272.9,50.92 -409.82,75.68 -64.03,11.58 -167.38,24.95 -223.45,38.52 -203.08,49.1 -124.75,-15.04 -167.34,118.8z"/>
   <path class="fil11" d="M14313.61 5170.66c99.8,162.81 253.43,114.39 271.31,417.88 12.84,217.49 -102.92,392.89 -153.4,562.71l20.27 25.71c117.08,46.27 288.8,46.63 345.81,113.91 143.89,-37.5 665.24,-329.38 790.05,-426.13 -137.12,-87.41 -712.47,-398.25 -799.33,-506.43l-440.48 -231.16 -34.23 43.51z"/>
   <path class="fil36" d="M1922.43 11482.92c201.8,19.32 1327.97,738.64 1560.14,863.22 203.37,109.12 260.25,366.13 240.55,596.1l25.54 -54.91c13.97,-51.76 12.95,-23.41 20.38,-95.89l1.32 -599.43c-161.74,-141.03 -689.26,-399.5 -915.49,-535.99 -138.95,-83.84 -313.68,-176.36 -468.34,-269.71 -149.75,-90.39 -298.05,-188.38 -463.42,-271l-0.68 367.61z"/>
   <path class="fil11" d="M4645.76 11560.19c-77.04,149.62 8.1,296.11 46.84,494.16 37.69,192.58 80.03,390.48 117.01,576.69l495.21 -277.57 38.52 -87.79c100.3,58.28 137.73,7.19 266.83,51.03 84.74,28.76 -34.62,-5.79 83.35,35.76l-11.18 -236.31c-35.91,-142.18 -18.05,-32.1 -16.53,-129.25 -262.49,-92.22 -309.97,-13.4 -559.2,51.72l-63.67 -511.65c-214.22,-32.35 -214.85,17.57 -397.18,33.21z"/>
   <path class="fil37" d="M13720.62 5703.34c132.01,-47.72 37.47,10.66 127.23,-126.02 84.82,229.5 171.01,144.33 318.09,268.49 5.47,208.39 -94.76,158.9 6.87,334.03 114.61,24.56 185.62,0.42 258.71,-28.59 50.48,-169.82 166.24,-345.22 153.4,-562.71 -17.88,-303.49 -171.51,-255.07 -271.31,-417.88 -225.31,-40.37 -313.17,-59.7 -531.76,-9.21 -27.39,93.07 -37.19,197.22 -70.28,298.12 -51.81,158.05 -85.45,100.17 9.05,243.77z"/>
   <path class="fil21" d="M5903.79 8496.71c-32.47,166.17 -146.99,287.83 -181.87,508.7 -41.66,263.83 10.9,460.48 8.48,704.69 162.91,-93.76 328.56,-172.64 467.83,-293.36 76.65,-170.84 135.46,-300.18 156.06,-523.27l-95.84 -430.93 -95.33 -118.4c-143.54,58.77 -140.25,96.78 -259.33,152.57z"/>
   <path class="fil27" d="M10183.09 9125.63l-1.28 304.02 407.23 -209.53 1362.97 -804.38c43.52,-53.74 72.15,-69.39 69.39,-181.8 -5.74,-232.7 -0.75,-95.72 -61.16,-148.89l-1777.15 1040.58z"/>
   <path class="fil38" d="M18310.34 7779.71c159.89,308.24 120.68,57.1 990.09,-229.47 183.98,-60.64 400.28,-121.63 561.45,-179.76 102.94,-37.13 160.43,-49.3 266.33,-94.08l302.16 -85.11c-5.33,-132.15 42.16,-306.49 -378.71,-418.75l68.36 90.96c-146.2,27.91 -492.86,223.79 -647.01,314.14 -189.55,111.11 -68.78,-3.99 -156.37,186.68 -181.58,16.4 -386.08,77.23 -509.28,181.41l-66.39 76.56c-101.82,95.39 -93.33,22.19 -267.01,171.4l-39.54 35.77c-29.54,-12.55 -101.72,-37.95 -124.08,-49.75z"/>
   <path class="fil39" d="M8342.5 14271.23l-415.6 -195.29c-7.76,175.24 110.9,97.85 220.27,379.66l428.14 -25.68c24.14,-6.23 87,-18.92 118.44,-29.98 81.58,-28.66 40.73,-17.8 74.74,-33.78 382.34,-179.65 191.59,66.71 589.55,-151.38 70.37,-38.56 92.5,-50.56 164.3,-92.31 23.03,-13.4 66.36,-40.45 87.05,-58.24 63.59,-54.65 6.15,14.77 53.69,-61.76 -445.53,-312.48 -340.36,-70.71 -340.36,-1131.26 0,-319.73 -4.61,-109.75 -61.05,-169.28l-2.32 1088.33c-223.88,78.06 -784.37,462.85 -916.85,480.97z"/>
   <path class="fil18" d="M4537.15 14931.86c140.65,-26.65 124.47,122.53 99.68,71.15 144.24,-109.65 64.6,-46.44 272.75,-66.04l290.53 -83.14c140.24,-37.82 137.97,-82.02 241.48,17.52 102.99,-13.62 319.07,-149.52 425.86,-210.66 130.5,-74.72 263.23,-158.69 408.63,-229.02l-428.41 -273.56c-202.44,93.08 -449.83,254.96 -660.76,372.81 -117.62,65.73 -205.39,118.5 -328.06,188.89 -44.78,25.69 -110.51,58.09 -165.78,89.98l-155.92 122.07z"/>
   <path class="fil24" d="M10182.44 7035.41c131.53,38.09 1625.15,888.33 1703.12,976.19 -900.6,558.09 -728.32,499.88 -1290.04,162.06 -142.09,-85.46 -287.58,-153.34 -415.07,-240.26 0.13,109.06 -3.48,83.52 31.84,159.35 114.33,47.26 674.42,356.39 755.49,435.21 -142.46,129.39 -548.02,330.85 -726.52,444.47 -6.69,9.59 -17.57,11.34 -19.87,28.91 -2.22,17.05 -13.8,22.25 -16.43,29.83 -17.58,50.74 -12.84,19.75 -21.87,94.46l1777.15 -1040.58 59.79 -94.53c-124.11,-42.4 -12.77,3.94 -72.92,-85l-370.79 -234.82c-138.57,-67.94 -834.61,-444.39 -930.25,-546.47l-427.58 -221.5c-5.14,7.51 -14.6,9.29 -15.74,22.32 -1.12,12.84 -11.36,18.53 -12.55,23.78 -11.1,48.3 -9.78,30.81 -7.76,86.58z"/>
   <path class="fil40" d="M19246.7 4278.25l108.89 24.43 -7.53 814.66c166.18,-20.89 320.07,-53.02 409.48,-67.48 0.25,-95.82 54.77,-69.01 69.74,-85.65 4.27,-11.47 55.97,-207.99 72.87,-304.33 48.9,-278.59 -241.51,-648.38 -399.81,-844.19 -179.23,288.72 28.93,233.67 -253.64,462.56z"/>
   <path class="fil35" d="M14289.99 3430.46l-3.67 136.76c113.33,27.6 400.98,43.38 475.71,136.81 164.71,-64.74 37.82,-64.26 189.07,-117.39l366.93 -192.81c87.93,-108.03 72.11,-57.78 184.45,-118.37 78.16,-42.15 100.93,-67.63 158.23,-120.48 -179.33,-120 -90.13,3 -199.21,-199.58 -36.35,119.62 55.72,-1.15 -56.24,79.07 -129.59,-186.44 -79.55,-34.04 -153.89,-313.85l11.36 149.13c-30.44,23.78 -18.86,16.17 -77.13,51.56 -21.81,13.25 -52.17,29.34 -74.82,41.42l-820.79 467.73z"/>
   <path class="fil34" d="M12892.63 10595.84c-149.49,79.55 -272.33,199.5 -419.51,236.81l-394.41 -182.52c-12.53,131.04 39.15,111.63 133.2,244.87 39.62,56.12 108.23,192.89 145.18,221.31 66.72,51.31 123.67,25.42 220.68,44.73 201.41,40.12 105.15,56.33 266.37,-31.53 135.7,-73.98 302.67,-164.63 480.1,-255.48 111.33,-56.99 410.03,-167.97 480.97,-287.6 -211.98,6.39 -388.93,-27.18 -593.32,26.29 -6.74,1.76 -16.5,5.9 -22.95,7.61 -232.79,61.58 -259.31,61.05 -296.31,-24.49z"/>
   <path class="fil41" d="M13720.62 5703.34c59.91,70.64 60.53,60.38 64.17,194.17l37.5 957.7 -482.63 270.27c-80.82,114.54 -140.19,123.17 -204.28,179.07 -15.84,13.82 -57.36,63.7 -75.9,84.42l231.32 209.99c147.33,-129.29 92.77,-128.76 324.19,-139.95l-15.63 -180.15c-110.56,-47.66 113.11,53.49 -59.5,-3 -93.93,-30.75 -3.18,82.37 -88.54,-74.13 66.14,-65.81 321.95,-203.51 409.17,-227.52l32.99 -189.23 -61.75 -238.47c-2.54,-99.24 2.87,-212.43 2.28,-314.29 142.71,31.1 163.82,9.35 290.74,33.82l108.69 210.75c225.13,-12.45 179.39,-107.92 300.15,-153.51l-62.62 -113.25c-90.9,-158.96 -23.81,73.64 -19.18,-33.07l-20.27 -25.71c-73.09,29.01 -144.1,53.15 -258.71,28.59 -101.63,-175.13 -1.4,-125.64 -6.87,-334.03 -147.08,-124.16 -233.27,-38.99 -318.09,-268.49 -89.76,136.68 4.78,78.3 -127.23,126.02z"/>
   <path class="fil42" d="M12129.84 3902.97l-48.2 488.29c49.69,160.16 166.47,225.58 368.62,230.12 85.78,1.93 193.89,-7.74 273.59,-35.87 144.38,-50.95 126.83,-49.61 141.38,-209.68l-54.89 -489.38c-179.76,-8.09 -184.29,270.95 -158,62.11 -478.38,7.98 -452.64,-44.57 -397.84,107.33 -40.7,-262.5 53.42,-76.19 -124.66,-152.92z"/>
   <path class="fil39" d="M9749.42 12227.28l-59.1 80.45c-143.86,-58.23 -541.66,-56.34 -697.61,18.36l-34.36 21.34c-41.15,16.3 -24.36,-17.84 -13.72,-65.17 0.73,-3.23 4.79,-11.65 5.37,-21.49 0.61,-10.16 7.11,-14.74 5.48,-22.15l-74.19 0.07c-77.11,30.92 -52.59,67.37 -133.49,147.14l93.25 73.15c92.42,57.19 169.29,86.16 278.1,159.69 89.6,-59.95 79.6,-12.99 198.9,-8.67 6.97,0.25 17.4,0.36 24.79,0.22l273.99 -18.09c5.17,-11.1 20.47,-60.78 24.76,-66.23 2.38,-2.98 9.79,-13.04 12.59,-15.79 2.59,-2.58 12.45,-9.16 15.12,-11.2l36.35 -12.29c95.75,-79.13 49.59,-53.95 131.64,12.97l32.03 -111.4c6.9,6.04 16.71,7.29 20.05,18.83 47.37,163.33 431.88,-14.92 431.92,-14.93 62.43,-18.15 134.41,-16.44 199.94,-20.41l5.94 -105.89 -444.3 -207.64 -333.45 169.13z"/>
   <path class="fil20" d="M11571.07 6609.26l3.31 1053.31c151.96,-89.54 290.35,-188.54 447.37,-242.03l-5.24 -1058.92c-167,53.69 -273.65,154.81 -445.44,247.64z"/>
   <path class="fil43" d="M14212.18 10745.33l-1.32 239.66 43.04 324.82 40.18 -4.21c310.97,-47.68 -198.21,106.21 99.36,-21.83 0,-204.33 0.2,-212.7 146.6,-330.68 -246.25,35.99 -5.4,37.05 -103.62,-21.52l-74.35 -129.36c-2,-16.56 -3,-22.04 -5.55,-32.83 47.7,19.51 3.71,35.43 110.04,-0.37 -31.49,81.29 -18.36,111.72 23.92,162.49 79.16,95.05 204.55,48.6 304.58,60.64 7.02,0.83 17.06,2.76 24.47,3.98 41.06,6.78 155.34,35.15 198.34,42.46 8.08,-9.84 23.95,-20.32 27.76,-26.24 3.01,-4.66 14.12,-20.41 16.86,-25.05 3.3,-5.65 -5.14,-39.95 -8.07,-46.21l-82.35 8.82c-94.22,-17.58 -134.83,-28.49 -207.49,-72.77 -112.42,-68.53 -83.85,-37.15 -135.95,-144.67 53.45,-63.49 -16.32,-26.15 93.74,-77.11 18.53,-8.57 106.43,-22.82 129.41,-27.14l-195.95 -480.86c-109.84,14.58 -153.72,53.82 -259.68,109.53l-162.32 102.64c-5.86,4.56 -19.97,28.04 -24.22,20.8 -4.35,-7.36 -16.52,14.1 -27.55,21.86l30.12 343.15z"/>
   <path class="fil43" d="M10589.04 9220.12c39.67,183.43 -274.89,134.91 -365.83,299.86 -51.76,218.02 -35.64,565.27 -9.64,790.94 104.61,-49.27 210.33,-126.41 315.35,-177.63 78.82,-61.76 100.36,-58.53 178.17,-105.78 138.61,-84.21 92.45,-33.44 135.27,-147.66l-195.85 -79.74 -7.22 -567.75 479.08 -276.29 826.53 -468.28c55.05,-63.17 67.65,-25.04 7.11,-72.05l-1362.97 804.38z"/>
   <path class="fil32" d="M3078.1 15592.96c55.35,130.36 24.16,66.92 115.51,168.57 65.4,72.78 70.31,71.47 120.69,151.5l888.55 0 17.16 -297.56c123.65,-51.4 338.82,-158.13 434.18,-286.14 -79.38,15.92 -171.75,22.97 -244.77,44.55 -9.52,2.81 -18.33,6.76 -27.4,9.75l-134.18 43.69c-203.88,32.63 -185.05,-13.2 -383.06,58.81 -128.4,46.7 -658.91,126.56 -786.68,106.83z"/>
   <path class="fil38" d="M9119.15 12618.67l142.52 83.26c56.44,59.53 61.05,-150.45 61.05,169.28l25.45 369.37c-67.17,-132.13 -32.73,-64.08 287.88,-250.36 115.68,-67.22 227.7,-123.11 350.6,-201.58 90.72,-57.92 82.12,-45.51 195.62,-98.11 150.17,-69.59 441.73,-184.37 497.43,-344.64l-152.53 -80.1 -5.94 105.89c-65.53,3.97 -137.51,2.26 -199.94,20.41 -0.04,0.01 -384.55,178.26 -431.92,14.93 -3.34,-11.54 -13.15,-12.79 -20.05,-18.83l-32.03 111.4c-82.05,-66.92 -35.89,-92.1 -131.64,-12.97l-36.35 12.29c-2.67,2.04 -12.53,8.62 -15.12,11.2 -2.8,2.75 -10.21,12.81 -12.59,15.79 -4.29,5.45 -19.59,55.13 -24.76,66.23l-273.99 18.09c-7.39,0.14 -17.82,0.03 -24.79,-0.22 -119.3,-4.32 -109.3,-51.28 -198.9,8.67z"/>
   <path class="fil44" d="M7933.9 14046.6l-7 29.34 415.6 195.29c31.11,-308.33 -81.01,-938.88 64.85,-1076.35 -147.63,18.55 -380.3,-103.96 -422.14,-212.02 -115.63,150.86 -26.44,821.86 -51.31,1063.74z"/>
   <path class="fil45" d="M14482.21 1831.61c128.04,-95.61 -17.35,-120.84 49.04,-331 4.99,-15.73 39.95,-85.88 45.72,-99.86 182.02,3.81 90.04,33.44 234.45,64.06 208.25,44.16 66.44,-34.13 291.06,-11.08 35.1,-176.56 98.76,-334.41 -46.87,-457.39 -280.13,-236.55 -807.96,-29.74 -737.96,358.58 29.22,162.05 155.53,273.71 164.56,476.69z"/>
   <path class="fil44" d="M7835.81 14009.34c-4.42,-257.07 -57.13,-888.26 37.46,-1089.64 -160.4,-24.33 -102.38,-15.14 -236.11,-97.97 -67.48,-41.8 -115.3,-65.78 -196.5,-98.17l-10.98 1064.66 406.13 221.12z"/>
   <path class="fil43" d="M4811.65 8233.84c16.98,-187.72 39.6,-264.61 116.44,-426.12 30.55,14.42 61.67,25.71 102.94,51.32 115.61,71.77 48.33,4.86 83.18,70.71 18.58,-204.27 -8.08,-283.2 46.98,-479.21 389.44,-175.96 393.23,346.84 437.41,672.26 169.34,123.68 140.44,152.03 269.75,287.66 83.52,-133.58 83.15,-375.41 163.96,-526.51l167.38 -11.37c-142.55,-184.55 -333.13,4.94 -477.29,-42.71 -83.71,-214.96 10.82,-102.85 36.75,-220.64 3.61,4.7 5.95,9.04 5.86,16.77l-13.96 75.18c-5.05,8.8 -27.51,37.06 -34.74,46.49 -6.53,8.51 -15.03,17.28 -21.5,25.25l-46.06 53.72c-56.34,-87.66 -26.55,-165.68 -49.79,-231.53 -1.4,-3.97 -6.36,-12.76 -8.27,-16.59l-167.84 -232.48c-168.13,-115.97 -150.68,160.2 -152.69,-98.97 -1.89,-244.68 196.12,157.77 11.16,-29.62 -12.02,2.21 -57.75,8.78 -66.29,10.67 -307.42,67.97 -228.69,141.96 -227.83,381.3 -8.86,8.44 -23.16,7.23 -28.1,23.63 -4.7,15.55 -20.24,17.39 -26.47,22.62 -5.67,4.75 -17.54,14.82 -24.19,20.4 -162.54,136.55 -324.05,396.39 -96.79,557.77z"/>
   <path class="fil18" d="M7790.2 11768.53l-16.48 190.6 110.12 -42.03 -0.61 251.43 242.03 101.76c89.65,-5.65 205.02,-79.39 273.22,-110.72l172.8 -348.45c-89.61,-90.16 116.23,-103.81 -113.17,-69.63 35.09,-89 33.19,14.91 -129.34,-117.16 -139.38,-113.28 -101.35,-64.41 -257.89,-156.85l-74.88 62.15c-7.79,6.2 -16.74,12.24 -24.52,18.43 -7.37,5.89 -16.36,11.69 -23.34,17.37 -89.52,72.71 -139.56,93.49 -157.94,203.1z"/>
   <path class="fil35" d="M11087.44 5809.96l-368.54 229.53c-51.43,103.64 28.6,105.91 127.39,155.64 118.96,59.9 99.08,47.97 197.67,122.72 77.73,-95.75 81.57,-75.35 192.42,-139.12 85.61,-49.24 144.75,-81.8 232.28,-133.71 155.79,-92.38 312.43,-185.67 449.15,-263.67 -94.71,-92.01 -262.11,-194.83 -391.54,-231.58 -81.44,70.86 -342.23,221.63 -438.83,260.19z"/>
   <path class="fil5" d="M8164.04 6770.32l43.14 271.59c86.91,64.82 122.52,40.3 137.99,153.7l-196.94 -71.42c-36.25,-169.57 -65.41,-280.37 15.81,-353.87zm-72.66 -87.35c-121.05,42.2 -32.08,-20.09 -130.91,80.53 -368.35,375.02 334.21,1113.23 534.51,529.65 88.61,-258.17 -98.31,-716.58 -403.6,-610.18z"/>
   <path class="fil46" d="M15265.79 7376.95l-96.38 23.12 35.23 411.52c381.69,-32.81 205.33,-25.02 363.64,-86.39l661.04 -151.2c117.68,-35.13 45.02,-18.31 103.17,-43.81 203.62,-89.32 190.76,93.14 287.25,-113.77 -113.53,-79.5 -237.66,-139.85 -371.14,-233.77 -6.38,10.19 -13.18,23.12 -18.42,31.02 -155.05,233.91 -157.62,104.6 -437.77,184.27l-96.86 35.92c-69.42,26.19 75.36,32.5 -116.84,26.08 -8.53,-0.28 -86.31,-14.5 -92.14,-13.96 -148.17,13.79 132.31,-47.17 -35.4,15.21l-42.35 14.33c-63.48,14.35 20.15,-57.74 -97.03,19.04 -78.32,-61.5 -102.22,110.58 -46,-117.61z"/>
   <path class="fil6" d="M10842.36 9879.85c108.56,94.11 104.77,106.11 260.83,151.42l15.18 -1075.2 -479.08 276.29 7.22 567.75 195.85 79.74z"/>
   <path class="fil47" d="M10241.26 8972.43c178.5,-113.62 584.06,-315.08 726.52,-444.47 -81.07,-78.82 -641.16,-387.95 -755.49,-435.21 -22.48,39.08 -91.65,753.75 28.97,879.68z"/>
   <path class="fil48" d="M18780.35 4341.62c9.26,165.94 274.64,589.78 361.62,756.94 99.43,60.3 51.73,38.43 206.09,18.78l7.53 -814.66 -108.89 -24.43c-160.46,-12.87 -309.64,36.11 -466.35,63.37z"/>
   <path class="fil49" d="M6707.57 12793.64c27.99,370.96 10.39,772.34 -9.56,1081.76 68.87,32.48 79.03,50.59 140.85,81.77l190.68 22.36c-40.08,-49.07 -49.34,-16.15 -60.41,-195.78 -2.28,-36.98 2.72,-139.89 3.04,-185.23l-2.37 -1149.72c133.53,-63.6 44.28,-32.13 89.56,-75.14l-3.97 9.29c-109.88,104.63 -70.74,40.9 -169.71,208.46 -25.37,42.96 -42,78.86 -69.91,112.94 -95.11,116.09 -1.45,32.21 -108.2,89.29z"/>
   <path class="fil50" d="M6676.94 12062.63l-113.44 65.38 -23.38 32.24c48.96,243.7 80.79,368.97 167.45,633.39 106.75,-57.08 13.09,26.8 108.2,-89.29 27.91,-34.08 44.54,-69.98 69.91,-112.94 98.97,-167.56 59.83,-103.83 169.71,-208.46 11.7,-246.1 69.13,-403.26 141.16,-594.68l-519.61 274.36z"/>
   <path class="fil46" d="M11103.19 10031.27c-156.06,-45.31 -152.27,-57.31 -260.83,-151.42 -42.82,114.22 3.34,63.45 -135.27,147.66 -77.81,47.25 -99.35,44.02 -178.17,105.78 151.7,13.35 73.92,-8.97 214.45,-10.87l310.51 -16.64c152.58,-33.34 267.18,54.68 434.73,4.71 318.56,-94.98 -60.11,-47.87 523.12,-59.13 14.75,-287.64 37.29,-373.12 -222.32,-361.99 -196.55,48.96 -512.96,307.27 -686.22,341.9z"/>
   <path class="fil51" d="M7417.53 11571.04c205.2,-33.2 221.25,-42.21 308.66,96.06l64.01 101.43c18.38,-109.61 68.42,-130.39 157.94,-203.1 6.98,-5.68 15.97,-11.48 23.34,-17.37 7.78,-6.19 16.73,-12.23 24.52,-18.43l74.88 -62.15c-93.39,11.76 -706.4,-410.2 -811.42,-478.28 -308.33,-199.89 -250.59,-80.26 -270.56,-51.62 90.49,92.16 436.74,515.82 428.63,633.46z"/>
   <path class="fil33" d="M6545.21 13810.01l152.8 65.39c19.95,-309.42 37.55,-710.8 9.56,-1081.76 -86.66,-264.42 -118.49,-389.69 -167.45,-633.39 -69.85,138.93 -54.41,1502.99 5.09,1649.76z"/>
   <path class="fil41" d="M14482.21 1831.61c3.81,7.49 11.16,10.14 12.6,21.82 2.62,21.05 19.15,37.23 22.26,45.78 17.18,47.31 20.15,-2.17 24.67,101.11 25.09,161.5 83.83,163.35 241.19,153.9 112.56,-146.11 20.95,-152.17 158.3,-283.8l67.75 -359.22c100.91,-61.01 -79.17,4.68 93.5,-57.47 -224.62,-23.05 -82.81,55.24 -291.06,11.08 -144.41,-30.62 -52.43,-60.25 -234.45,-64.06 -5.77,13.98 -40.73,84.13 -45.72,99.86 -66.39,210.16 79,235.39 -49.04,331z"/>
   <path class="fil52" d="M15487.39 6462.52c74.43,77.99 36.28,-96.32 56.59,151.81 2.02,24.84 -2.91,126.46 -1.95,162.71 -26.09,116.8 -21.48,128.74 -19.63,245.26 0.73,46.93 7.65,99.6 2.91,145.22 -12.72,122.92 12.57,38.61 -33.46,112.19 36.66,15.99 -0.28,17.65 64.6,7.01l279.48 -154.95 26.99 -479.46 -32.31 -392.92c-76.58,27.67 -289.05,157.97 -343.22,203.13z"/>
   <path class="fil35" d="M11206.98 6384.27l364.09 224.99c171.79,-92.83 278.44,-193.95 445.44,-247.64l-1.19 -439.62c-256.25,91.51 -559.08,343.01 -808.34,462.27z"/>
   <path class="fil16" d="M7029.54 13979.53l-190.68 -22.36c-61.82,-31.18 -71.98,-49.29 -140.85,-81.77l-152.8 -65.39c26.21,172.58 39.59,123.22 138.55,263.26 49.1,69.51 83.06,113.72 124.56,178.23l254.36 -89.85c62.49,-25.32 70.42,-33.41 127.97,-33.45l628.47 -102.38 61.74 32.37c0,-57.99 13.98,-40.81 -45.05,-48.85l-406.13 -221.12 10.98 -1064.66 3.43 -33.13 -27.35 1091.34 -387.2 197.76z"/>
   <path class="fil7" d="M5114.21 7929.75c208.49,112.91 206.94,185.04 345.06,291.43 68.22,-49.43 77.65,-58.26 139.33,-98.38 -44.18,-325.42 -47.97,-848.22 -437.41,-672.26 -55.06,196.01 -28.4,274.94 -46.98,479.21z"/>
   <path class="fil32" d="M17038.84 8190.68l-235.89 -115.08c-4.51,146.92 171.83,554.45 309.19,543.25 80.84,-27.54 176.06,-97.95 259.44,-162.21l139.81 -88.43c73.64,-36.73 101.41,-23.4 137.7,-97.44 -46.33,-80.64 -27.47,-28.58 -132.33,-98.18 -76.05,-50.48 -94.54,-79.3 -170.19,-124.33 -131.81,62.09 -149.66,97.58 -307.73,142.42z"/>
   <path class="fil24" d="M12892.63 10595.84c37,85.54 63.52,86.07 296.31,24.49 6.45,-1.71 16.21,-5.85 22.95,-7.61 204.39,-53.47 381.34,-19.9 593.32,-26.29l14.08 1.96c-23.07,-169.74 -15.79,-527.83 -105.88,-639.23l-18.24 189.34c-142.67,77.92 -713.37,446.86 -802.54,457.34z"/>
   <path class="fil53" d="M12156.95 3624.79l-27.11 278.18c178.08,76.73 83.96,-109.58 124.66,152.92 -54.8,-151.9 -80.54,-99.35 397.84,-107.33 -26.29,208.84 -21.76,-70.2 158,-62.11l-16.09 -244.94c-88.07,-82.02 -80.31,-113.2 -208.64,-88 -40.24,7.9 -58.24,15.89 -140.28,26.7l-168.46 32.82c0.38,-64.34 -76.76,-114.93 -99.58,-134.41l-20.34 146.17z"/>
   <path class="fil15" d="M14379.54 4002.91c81.1,53.21 123.68,73.71 199.08,114.02 0.42,0.22 92.29,51.13 94.71,53.49 73.42,72.3 28.6,-2.28 54.46,108.83l10.22 26.22c-11.09,-144.66 -22.33,-38.12 74.67,-78.86 57.39,66.2 356.7,231.13 439.02,262.09l-9.65 -15.44c-23.19,-146.7 -14.74,-181.01 -15.22,-323.25 -0.57,-171.32 35.23,-158.46 -78.25,-193.04 -137.32,46.15 -232.24,54.69 -392.84,-16.69 -105.56,84.82 -273.09,25.18 -434.62,-12.29 7.37,8.53 42.58,53.95 58.42,74.92z"/>
   <path class="fil54" d="M15491.85 7279.71l-69.21 -3.74 -156.85 100.98c-56.22,228.19 -32.32,56.11 46,117.61 117.18,-76.78 33.55,-4.69 97.03,-19.04l42.35 -14.33c167.71,-62.38 -112.77,-1.42 35.4,-15.21 5.83,-0.54 83.61,13.68 92.14,13.96 192.2,6.42 47.42,0.11 116.84,-26.08l96.86 -35.92c280.15,-79.67 282.72,49.64 437.77,-184.27 5.24,-7.9 12.04,-20.83 18.42,-31.02 -87.5,-33.74 -106.64,-50.07 -170.43,-85.83 -490.2,-274.76 -11.02,94.46 -215.25,-444.51l-26.99 479.46 -279.48 154.95c-64.88,10.64 -27.94,8.98 -64.6,-7.01z"/>
   <path class="fil55" d="M12177.29 3478.62c22.82,19.48 99.96,70.07 99.58,134.41l168.46 -32.82c82.04,-10.81 100.04,-18.8 140.28,-26.7 128.33,-25.2 120.57,5.98 208.64,88l-0.37 -28.72c-11.58,-70.38 -18.71,-144.59 -29.45,-212.14 -25.31,-159.27 7.94,-105 -75.13,-188.95 -82.33,-73.34 -226.64,-105.27 -360.73,-55.06 -147.14,55.11 -122.14,146.74 -151.28,321.98z"/>
   <path class="fil56" d="M4606.47 8753.91c67.3,88.03 77.99,124.58 75.78,244.26l133.26 307.93 431.57 259.86c-46.59,-126.97 -193.33,-290.35 -276.72,-468.52 -92.15,-196.89 -136.69,-370.07 -171.11,-608.49 -204.47,37.88 -151.74,66.31 -192.78,264.96z"/>
   <path class="fil16" d="M14144.77 9814.1c13.89,282.31 -31.99,702.94 67.41,931.23l-30.12 -343.15c11.03,-7.76 23.2,-29.22 27.55,-21.86 4.25,7.24 18.36,-16.24 24.22,-20.8l162.32 -102.64c105.96,-55.71 149.84,-94.95 259.68,-109.53 -55.05,-120.79 -78.86,-249.2 -164.85,-328.42 -7.87,94.48 42.05,15.05 -24.24,54.13 -198.18,-174.29 -153.23,-23.21 -321.97,-58.96z"/>
   <path class="fil57" d="M13855.28 8308.19l23.77 55.87c85.21,16.56 641.65,205.98 445.51,-275.28 -106.03,-260.16 37.48,-932.07 -32.16,-1186.92l-89.25 -149.46c56.52,323.52 15.13,634.75 -10.91,960.94 -28.32,354.67 38.09,589.24 -336.96,594.85z"/>
   <path class="fil58" d="M6808.32 14251.5c46.34,109.27 94.26,170.72 163.11,232.68 166.63,-14.44 329.78,-125.56 467.25,-199.26 132.82,-71.21 316.4,-121.83 380.44,-259.1l-628.47 102.38c-57.55,0.04 -65.48,8.13 -127.97,33.45l-254.36 89.85z"/>
   <path class="fil43" d="M6676.94 12062.63l519.61 -274.36 26.8 -138.02 -47.02 -165.64c-49.84,-112.02 -123.48,-100.88 -216.88,-30.95 -176.28,132.01 -252.36,396.88 -282.51,608.97z"/>
   <path class="fil41" d="M2540.19 8500.89l64.64 400.51c282.69,3.53 490.25,7.72 353.64,-477.66 -250.74,-35.45 -233.73,-52.91 -418.28,77.15z"/>
   <path class="fil59" d="M14253.9 11309.81l-43.04 -324.82c-193.69,70.14 -225.02,35.56 -371.97,-43.48l-308.42 71.25c-20.15,269.07 454.14,309.95 723.43,297.05z"/>
   <path class="fil46" d="M2525.88 15002.15l75.92 -21.51c27.72,-8.07 74.81,-23.2 100.72,-30.09 51.67,-13.74 80.49,-30.97 153.25,-24.71 184.35,15.88 -8.51,-12.19 129.11,51.48 96.05,44.45 26.12,68.82 130.28,12.43 -74.65,-74.27 -984.04,-584.63 -1113.66,-630.97 40.8,96.88 7.47,29.21 63.63,102.54l205.38 238.77c106.68,109.16 208.51,182.02 255.37,302.06z"/>
   <path class="fil60" d="M8812.84 12899.91c177.61,17.04 299.73,-107.19 448.83,-197.98l-142.52 -83.26c-108.81,-73.53 -185.68,-102.5 -278.1,-159.69 -121.37,129.8 -243.71,101.1 -370.37,268.25l342.16 172.68z"/>
   <path class="fil60" d="M7985.21 12982.86c41.84,108.06 274.51,230.57 422.14,212.02 104.78,-45.4 231.09,-129.43 334.61,-182.21 -57.51,-62.05 -282.51,-220.95 -383.7,-228.77 -81.78,-6.32 -289.49,136.95 -373.05,198.96z"/>
   <path class="fil61" d="M11043.96 6317.85c103.19,62.91 40.65,42.87 163.02,66.42 249.26,-119.26 552.09,-370.76 808.34,-462.27l0.76 -129.48 -98.27 -11.17c-136.72,78 -293.36,171.29 -449.15,263.67 -87.53,51.91 -146.67,84.47 -232.28,133.71 -110.85,63.77 -114.69,43.37 -192.42,139.12z"/>
   <path class="fil35" d="M17548.76 5800.79c44.62,67.55 -39.01,-1.93 75.74,87.32 43.84,34.1 52.02,30.26 93.84,50.65 77.91,37.95 121.15,68.36 203.46,94.52l261.69 -133.38c-45.49,-63.79 -81.86,-133.11 -107.79,-178.45 -91.64,-160.31 -21.18,-117.79 -147.11,-112.62 -123.62,18.41 -252.88,106.08 -379.83,191.96z"/>
   <path class="fil3" d="M4203.36 12931.38l9.12 538.23c146.49,-20.87 369.14,-153.24 480.8,-284.4l-183.69 -2.28 -111.72 -321.86c-97.47,38.95 -78.54,46.52 -194.51,70.31z"/>
   <path class="fil43" d="M14144.77 9814.1c168.74,35.75 123.79,-115.33 321.97,58.96 66.29,-39.08 16.37,40.35 24.24,-54.13l-144.82 -603.03 11.72 -96.5c-104.46,41.3 -46.26,-5.38 -117.13,136.16 -23.49,46.88 -54.95,111.86 -68.84,151.3 -47.44,134.77 -32.66,255.93 -27.14,407.24z"/>
   <path class="fil62" d="M19351.96 6911.14c136.98,-49.63 50.37,-46.08 148.38,-13.08 5.5,-10.93 24.36,-58.19 28.32,-64.77 102.02,-169.04 92.73,-98.8 104.51,-97.59 265.91,27.05 -142.73,105.74 103.86,7.37 147.9,-59.02 98.56,-26.74 111.81,-98.22 -197.49,-166.57 -415.82,-228.34 -448.06,-329.54 -26.28,-82.45 -9.84,-71.5 -6.2,-146.59 -28.98,46.02 -18.29,7.21 -32.59,85.35l-10.03 657.07z"/>
   <path class="fil63" d="M5868.35 8410.46l35.44 86.25c119.08,-55.79 115.79,-93.8 259.33,-152.57l95.33 118.4c-8.08,-305.71 0.16,-336.11 -58.76,-589.96l-167.38 11.37c-80.81,151.1 -80.44,392.93 -163.96,526.51z"/>
   <path class="fil13" d="M3587.47 10944.92c-36.84,164.41 -69.9,266.52 126.76,336.2 94.53,33.49 110.97,42.49 245.32,19.11 168.66,-29.36 86.79,-47.34 191.72,-73.82l-93.91 -180.78c-95.71,7.75 -143.76,-1.21 -235.27,-30.92 -121.56,-39.47 -156.91,-47.43 -162.41,-171.84l-60.08 30.46 -12.13 71.59z"/>
   <path class="fil5" d="M7417.53 11571.04l-11.06 38.39c-25.24,34.91 61.48,153.76 -183.12,40.82l-26.8 138.02c-72.03,191.42 -129.46,348.58 -141.16,594.68l3.97 -9.29 91.14 -51.6c39.32,-293.35 75.96,-478.71 280.76,-586.75l21.79 -40.92 135.81 -28.37c60.53,94.54 88.43,208.5 82.21,354.41l102.65 -61.3 16.48 -190.6 -64.01 -101.43c-87.41,-138.27 -103.46,-129.26 -308.66,-96.06z"/>
   <path class="fil64" d="M6563.5 12128.01l113.44 -65.38c30.15,-212.09 106.23,-476.96 282.51,-608.97 93.4,-69.93 167.04,-81.07 216.88,30.95l47.02 165.64c244.6,112.94 157.88,-5.91 183.12,-40.82 -167.04,-32.15 -58.17,-19.97 -136.78,-185.06 -145.72,-306.06 -567.6,-140.13 -706.19,703.64z"/>
   <path class="fil28" d="M15245.93 7119.97c55.16,71.46 21.42,36.02 99.79,92.04 175.75,125.66 -95.68,-80.25 42.38,25.85 84.65,65.06 7.62,-9.38 34.54,38.11l69.21 3.74c46.03,-73.58 20.74,10.73 33.46,-112.19 4.74,-45.62 -2.18,-98.29 -2.91,-145.22 -1.85,-116.52 -6.46,-128.46 19.63,-245.26 -166.86,-41.02 -126.99,-84.57 -311.14,-124.61l15.04 467.54z"/>
   <path class="fil60" d="M7444.09 12690.43l-3.43 33.13c81.2,32.39 129.02,56.37 196.5,98.17 133.73,82.83 75.71,73.64 236.11,97.97 115.37,-73.68 179.61,-101.71 291.79,-183.28 -208.09,-78.55 -272.42,-107.85 -434.94,-207.96 -95.54,57.54 -179.31,97.02 -286.03,161.97z"/>
   <path class="fil49" d="M15251.37 2720.62c74.34,279.81 24.3,127.41 153.89,313.85 111.96,-80.22 19.89,40.55 56.24,-79.07 -20.59,-185.61 -69.86,-376.13 -113.96,-561.46 -50.26,-211.29 -49.15,-352.38 -212.37,-446.32 21.51,221.55 83.87,513.37 116.2,773z"/>
   <path class="fil41" d="M5304.82 12353.47l-35.77 142.4c83.43,21.05 110.21,64.92 172.34,148.58 227.45,15.26 227.29,-116.37 381.95,-76.01 -14.15,-168.34 -38.29,-100.88 -82.54,-200.82 -56.86,-128.46 -2.83,-155.21 -58.46,-251.46l11.18 236.31c-117.97,-41.55 1.39,-7 -83.35,-35.76 -129.1,-43.84 -166.53,7.25 -266.83,-51.03l-38.52 87.79z"/>
   <path class="fil1" d="M7941.1 8156.06c67.32,57.98 246.48,162.75 357.66,204.41l-5.29 -383.68c-135.34,-113.93 -220.95,-140.47 -344.74,-198.37l-7.63 377.64z"/>
   <path class="fil1" d="M7943.89 8691.36l344.02 203.51 8.88 -411.32c-105.29,-44.84 -256.7,-152.38 -356.76,-169.9l3.86 377.71z"/>
   <path class="fil1" d="M7480.89 7917.38c110.62,46.66 236.2,151.83 354.35,160.6l-0.31 -358.33 -338.64 -215.73 -15.4 413.46z"/>
   <polygon class="fil1" points="8400.62,8417.77 8752.02,8632.46 8751.41,8233.87 8401.67,8030.93 "/>
   <path class="fil65" d="M8437.57 12514.2c89.79,-70.09 561.02,-480.87 398,-634.47 -241.93,-227.93 -370.05,441.55 -398,634.47z"/>
   <polygon class="fil1" points="7484.11,8417.76 7832.25,8630.61 7833.57,8233.9 7482.98,8030.51 "/>
   <path class="fil66" d="M14762.03 3704.03c-132.13,72.71 -155.29,165.72 -6.29,236.25 160.6,71.38 255.52,62.84 392.84,16.69 -5.7,-130.17 57.16,-79.76 -82.65,-109.69l142.32 -57.1 -144.96 -21.04 156.28 -59.46 -288.51 -15.9 20.04 -107.14c-151.25,53.13 -24.36,52.65 -189.07,117.39z"/>
   <path class="fil1" d="M7600.8 8636.36c81.67,187.25 215.3,343 281.62,552.55l341.49 -174.66c-85.22,-114.95 -136.32,-111.35 -314.91,-211.75 -125.99,-70.82 -176.25,-113.53 -308.2,-166.14z"/>
   <path class="fil67" d="M15024.39 7817.94l101.89 39.75 78.36 -46.1 -35.23 -411.52 -73.64 -380.56 -79.99 -305.46c-28.93,-40.33 -7.01,-34.23 -33.88,10.04 27.25,287.28 84.4,824.28 42.49,1093.85z"/>
   <path class="fil68" d="M3659.68 10842.87c5.5,124.41 40.85,132.37 162.41,171.84 91.51,29.71 139.56,38.67 235.27,30.92l46.09 -194.13c8.67,-8.64 37.35,-29.26 40.25,-44.84 3.09,-16.57 3.96,-26.49 8.56,-36.29l-32.91 -71.74 -74.91 80.06c-93.73,-36.84 -234.1,-61.01 -359.3,-76.53l-25.46 140.71z"/>
   <path class="fil59" d="M14851.78 10628.21c-22.98,4.32 -110.88,18.57 -129.41,27.14 -110.06,50.96 -40.29,13.62 -93.74,77.11 52.1,107.52 23.53,76.14 135.95,144.67 72.66,44.28 113.27,55.19 207.49,72.77 16.98,-81.87 36.76,-95.78 91.53,-172.45 70.3,-98.41 95.52,-116.99 188.17,-155.62 -35.66,-73.38 23.06,-19.21 -51.18,-78.73 -116.71,42.19 -178.67,91.53 -348.81,85.11z"/>
   <path class="fil11" d="M11574.38 7662.57l1.94 8.13 370.79 234.82c100.65,-67.93 40.77,23.84 73.18,-110.73 0.92,-3.79 1.64,-99.31 1.61,-109.83 -0.19,-91.24 -3.5,-171.65 -0.15,-264.42 -157.02,53.49 -295.41,152.49 -447.37,242.03z"/>
   <path class="fil22" d="M11087.44 5809.96c96.6,-38.56 357.39,-189.33 438.83,-260.19 -66.92,-71.31 -310.63,-211.18 -421.15,-242.09l-17.68 502.28z"/>
   <path class="fil10" d="M14296.19 4420.24l18.63 55.04 269.77 -132.96 -9.11 -117.56c-58.5,-42.3 -67.9,-46.31 -113.83,-97.97 -73.51,-82.69 -33.48,-22.05 -82.11,-123.88 -15.84,-20.97 -51.05,-66.39 -58.42,-74.92l-76.74 -21.75c-38.56,266.06 -13.95,275.13 51.81,514z"/>
   <polygon class="fil47" points="10222,6841.54 10218.49,6902.73 10646.07,7124.23 10631.56,6622.05 "/>
   <path class="fil11" d="M12865.23 4375.83c-14.55,160.07 3,158.73 -141.38,209.68 -79.7,28.13 -187.81,37.8 -273.59,35.87 -202.15,-4.54 -318.93,-69.96 -368.62,-230.12 -187.59,160.03 78.5,300.54 252.85,326.6 310.39,46.41 372.96,-20.66 595.46,-139.63 1.26,-164.14 36.41,-124.35 -64.72,-202.4z"/>
   <path class="fil41" d="M4119.35 10698.63l32.91 71.74c-4.6,9.8 -5.47,19.72 -8.56,36.29 -2.9,15.58 -31.58,36.2 -40.25,44.84 217.13,-45.37 238.12,-299.87 254.04,-529.78 -47.04,-43.02 -12.06,-16.86 -77.96,-27.9 -106.96,98.33 -146.81,69.52 -242.14,106.37 23.12,161.09 57.18,87.99 81.96,298.44z"/>
   <path class="fil69" d="M13614.99 7459.01l199.81 -104.01 45.69 -380.79c-87.22,24.01 -343.03,161.71 -409.17,227.52 85.36,156.5 -5.39,43.38 88.54,74.13 172.61,56.49 -51.06,-44.66 59.5,3l15.63 180.15z"/>
   <path class="fil15" d="M6354.29 8893.47c-20.6,223.09 -79.41,352.43 -156.06,523.27 149.81,-39.07 173.07,-94.42 321.24,-130.45 -6.04,-107.06 -2.96,-178.34 -1.79,-282.73 0.12,-10.51 -0.48,-108.91 -0.78,-110.2 -28.61,-119.44 -1.39,-62.24 -78.6,-129.55l-19.07 143.93 -64.94 -14.27z"/>
   <path class="fil50" d="M7150.5 12322.06l271.99 -152.52 8.77 -434.23c-204.8,108.04 -241.44,293.4 -280.76,586.75z"/>
   <path class="fil48" d="M14951.1 3586.64l-20.04 107.14 288.51 15.9 72.07 65.06 72.41 -354.83c-25.21,-61.16 23.98,-12.24 -46.02,-26.08l-366.93 192.81z"/>
   <path class="fil46" d="M17921.55 7334.75c41.21,4.47 132.38,14.97 160.68,10.78 77.71,-11.51 26.35,-10.07 43.07,-20.4 14.33,-8.86 -27.27,-20.62 51.47,-36.61 -64.21,-88.51 -32.32,-60.76 -149.19,-119.3 -58.46,-29.27 -77.59,-34.55 -143.18,-72.15 -129.48,-74.27 -174.44,-109.4 -308.56,-157.74 67.71,147.37 58.52,112.65 172.35,219.31 67.6,63.34 137.63,136.37 173.36,176.11z"/>
   <path class="fil70" d="M12914.59 7359.16c49.27,208.75 222.25,269.7 362.6,352.43l13.61 -112.63 -231.32 -209.99c18.54,-20.72 60.06,-70.6 75.9,-84.42 64.09,-55.9 123.46,-64.53 204.28,-179.07 -134.18,41.67 -107.01,46.02 -223.83,120.18 -61.17,38.82 -144.35,77.3 -201.24,113.5z"/>
   <path class="fil59" d="M15015.78 6714.05l79.99 305.46c142.37,66.75 64.17,14.9 150.16,100.46l-15.04 -467.54 6.71 -51.46 -221.82 113.08z"/>
   <path class="fil71" d="M14357.88 9119.4l-11.72 96.5c121.23,-87.46 -0.27,54.97 71.79,-75.35 64.2,-116.07 -17.23,-130.56 153.05,-289.38 144.96,-135.23 192.73,-97.22 214.98,-330.57 -89.84,162.2 -426.32,195.38 -428.1,598.8z"/>
   <path class="fil72" d="M9990.25 6506.82c93.79,-99.22 106.06,-244.11 89.84,-407.12 -21.31,-214.07 -4.26,-90.41 -59.09,-146.94 -154.39,115.38 -102.99,473.11 -30.75,554.06z"/>
   <path class="fil59" d="M15862.92 6652.31c131.59,55.96 295.76,41.7 219.4,-104.07 -58.03,-110.79 -122.12,-82.73 -190.05,-282.08l-61.66 -6.77 32.31 392.92z"/>
   <path class="fil60" d="M7849.83 12454.58l183.47 119.51c68.32,26.54 136.02,41.52 210.82,59.31 -94.48,-184.62 -138.72,-296.86 -355.88,-363.21 5.36,98.93 31.59,130.59 -38.41,184.39z"/>
   <path class="fil59" d="M5824.39 13674.92c178.27,-48.79 281.23,-149.92 216.1,-327.05l-208.69 4.49 -7.41 322.56z"/>
   <path class="fil73" d="M15169.41 7400.07l96.38 -23.12 156.85 -100.98c-26.92,-47.49 50.11,26.95 -34.54,-38.11 -138.06,-106.1 133.37,99.81 -42.38,-25.85 -78.37,-56.02 -44.63,-20.58 -99.79,-92.04 -85.99,-85.56 -7.79,-33.71 -150.16,-100.46l73.64 380.56z"/>
   <path class="fil27" d="M15237.6 6600.97l-6.71 51.46c184.15,40.04 144.28,83.59 311.14,124.61 -0.96,-36.25 3.97,-137.87 1.95,-162.71 -20.31,-248.13 17.84,-73.82 -56.59,-151.81l-249.79 138.45z"/>
   <path class="fil74" d="M8405.52 8890.08c99.41,-44.45 186.11,-83.96 279.18,-167.49l-284.54 -152.96 5.36 320.45z"/>
   <path class="fil75" d="M7453.05 11694.39l156.57 349.67 61.45 -23.63c6.22,-145.91 -21.68,-259.87 -82.21,-354.41l-135.81 28.37z"/>
   <path class="fil76" d="M14972.07 10949.9l82.35 -8.82c52.89,-95.12 247.6,-84.71 197.35,-319.25 -92.65,38.63 -117.87,57.21 -188.17,155.62 -54.77,76.67 -74.55,90.58 -91.53,172.45z"/>
   <path class="fil77" d="M4501.69 9142.58l313.82 163.52 -133.26 -307.93c-24.67,10.96 -78.8,32.72 -97.54,45.33 -66.67,44.9 -53.21,28.45 -83.02,99.08z"/>
   <path class="fil60" d="M8125.26 12270.29c68.29,74.35 114.76,131.2 166.11,225.59 76.43,-105.22 59.92,-197.33 107.11,-336.31 -68.2,31.33 -183.57,105.07 -273.22,110.72z"/>
   <path class="fil71" d="M14584.59 4342.32l143.2 -63.07c-25.86,-111.11 18.96,-36.53 -54.46,-108.83 -2.42,-2.36 -94.29,-53.27 -94.71,-53.49 -75.4,-40.31 -117.98,-60.81 -199.08,-114.02 48.63,101.83 8.6,41.19 82.11,123.88 45.93,51.66 55.33,55.67 113.83,97.97l9.11 117.56z"/>
   <path class="fil23" d="M17921.8 6033.28l105.38 87.02c115.84,-29.86 107.43,-43.54 213.84,-76.49l-57.53 -143.91 -261.69 133.38z"/>
   <path class="fil0" d="M8148.23 7124.19l196.94 71.42c-15.47,-113.4 -51.08,-88.88 -137.99,-153.7l-43.14 -271.59c-81.22,73.5 -52.06,184.3 -15.81,353.87z"/>
   <path class="fil0" d="M5371.38 12764.68l70.01 -120.23c-62.13,-83.66 -88.91,-127.53 -172.34,-148.58l-133.84 49.93c102.09,41.83 56.28,6.85 122.24,82.14l113.93 136.74z"/>
   <path class="fil78" d="M13614.99 7459.01c98.56,105.23 72.96,136.75 189.66,195.3l10.15 -299.31 -199.81 104.01z"/>
   <path class="fil79" d="M7849.83 12454.58c70,-53.8 43.77,-85.46 38.41,-184.39 -41.78,24.89 -79.32,21.49 -93.2,88.85 -20.45,99.26 54.57,95.36 54.79,95.54z"/>
   <path class="fil48" d="M4279.53 10293.82c65.9,11.04 30.92,-15.12 77.96,27.9l49.86 -21.25c-45.11,-44.81 -30.57,-1.27 -81.3,-101.9l-46.52 95.25z"/>
  </g>
 </g>
</svg>
